<?xml version="1.0" encoding="UTF-8" standalone="no"?>
<!-- Created with Inkscape (http://www.inkscape.org/) -->

<svg
   width="210mm"
   height="297mm"
   viewBox="0 0 210 297"
   version="1.1"
   id="svg1"
   xml:space="preserve"
   inkscape:export-filename="ck-dyongo-and-associates-new-logo.svg"
   inkscape:export-xdpi="96"
   inkscape:export-ydpi="96"
   xmlns:inkscape="http://www.inkscape.org/namespaces/inkscape"
   xmlns:sodipodi="http://sodipodi.sourceforge.net/DTD/sodipodi-0.dtd"
   xmlns="http://www.w3.org/2000/svg"
   xmlns:svg="http://www.w3.org/2000/svg"><sodipodi:namedview
     id="namedview1"
     pagecolor="#ffffff"
     bordercolor="#000000"
     borderopacity="0.25"
     inkscape:showpageshadow="2"
     inkscape:pageopacity="0.0"
     inkscape:pagecheckerboard="0"
     inkscape:deskcolor="#d1d1d1"
     inkscape:document-units="mm"
     inkscape:zoom="0.55370687"
     inkscape:cx="140.86876"
     inkscape:cy="566.18405"
     inkscape:window-width="1920"
     inkscape:window-height="1057"
     inkscape:window-x="-8"
     inkscape:window-y="-8"
     inkscape:window-maximized="1"
     inkscape:current-layer="layer1" /><defs
     id="defs1"><filter
       inkscape:collect="always"
       style="color-interpolation-filters:sRGB"
       id="filter2"
       x="-0.17785742"
       y="-0.1778574"
       width="1.3557148"
       height="1.3557148"><feGaussianBlur
         inkscape:collect="always"
         stdDeviation="1.9561973"
         id="feGaussianBlur2" /></filter></defs><g
     inkscape:label="Layer 1"
     inkscape:groupmode="layer"
     id="layer1"><rect
       style="display:inline;fill:#d4af37;fill-opacity:1;stroke:#000000;stroke-width:0;stroke-linejoin:bevel;paint-order:stroke markers fill"
       id="rect3"
       width="5.7608404"
       height="119.34528"
       x="30.849327"
       y="89.054512" /><rect
       style="display:inline;fill:#d4af37;fill-opacity:1;stroke:#000000;stroke-width:0;stroke-linejoin:bevel;paint-order:stroke markers fill"
       id="rect2"
       width="139.95467"
       height="24.586365"
       x="35.022667"
       y="136.20682" /><path
       id="path1"
       style="display:inline;fill:#0b1629;fill-opacity:1"
       d="m 35.022668,89.054513 v 43.541527 0.52917 15.37477 15.90394 43.33327 0.66249 H 174.97743 v -0.66249 -44.07018 -15.16703 -15.37477 -0.52917 -43.541527 z m 16.038298,48.212557 c 2.559167,0 5.118616,0.87969 7.237284,2.63964 3.336872,2.77187 4.79018,7.36342 3.656625,11.5502 -1.206435,4.45593 -4.961193,7.71338 -9.547738,8.28321 -5.529245,0.68694 -10.772067,-2.86114 -12.24008,-8.28321 -1.133555,-4.18678 0.32027,-8.77833 3.657141,-11.5502 2.118668,-1.75995 4.677601,-2.63964 7.236768,-2.63964 z m 0,0.94982 c -0.692577,0 -1.38494,0.048 -1.88774,0.14469 -4.232583,0.81379 -7.481316,4.06253 -8.295101,8.2951 -0.193344,1.0056 -0.193344,2.77039 0,3.776 0.620442,3.22697 2.672007,5.93869 5.582605,7.37836 1.216684,0.60181 2.282331,0.89651 3.883484,1.07384 0.50781,0.0562 1.870266,-0.0335 2.649451,-0.17415 4.132002,-0.74616 7.440245,-4.0657 8.250142,-8.27805 0.193344,-1.00561 0.193344,-2.7704 0,-3.776 -0.813785,-4.23257 -4.062002,-7.48131 -8.294584,-8.2951 -0.502802,-0.0967 -1.19568,-0.14469 -1.888257,-0.14469 z m 102.009274,4.76818 0.34572,0.0248 0.34623,0.0248 0.80047,2.0159 c 0.78265,1.97094 1.03814,2.41949 1.37976,2.41949 0.0712,0 0.12919,0.0605 0.12919,0.13436 0,0.1131 -0.1989,0.13436 -1.25419,0.13436 -1.0106,0 -1.25418,-0.0243 -1.25418,-0.12454 0,-0.0713 0.13406,-0.14976 0.31367,-0.18346 0.36816,-0.0691 0.37616,-0.11981 0.11782,-0.7431 l -0.19585,-0.47233 h -0.82992 -0.83044 l -0.15813,0.5023 c -0.15385,0.48792 -0.1536,0.50597 0.0124,0.62735 0.094,0.0687 0.26397,0.12506 0.37775,0.12506 0.12417,0 0.20671,0.0537 0.20671,0.13436 0,0.1158 -0.30368,0.13436 -2.19521,0.13436 -1.89155,0 -2.1947,-0.0186 -2.1947,-0.13436 0,-0.0875 0.0874,-0.13488 0.25063,-0.13488 0.44862,0 0.46612,-0.0752 0.46612,-2.02882 0,-1.77273 -0.005,-1.81653 -0.19947,-1.95285 -0.10952,-0.0767 -0.27052,-0.13952 -0.35812,-0.13952 -0.0876,0 -0.15916,-0.0605 -0.15916,-0.13436 0,-0.1133 0.20403,-0.13436 1.29914,-0.13436 1.0951,0 1.29915,0.0211 1.29915,0.13436 0,0.0761 -0.0802,0.13436 -0.185,0.13436 -0.1018,0 -0.26334,0.0415 -0.35864,0.0925 -0.16291,0.0872 -0.17311,0.20587 -0.17311,1.97352 v 1.88051 l 0.22944,0.0873 c 0.1264,0.0481 0.3228,0.0873 0.43615,0.0873 0.44939,0 0.62949,-0.29138 1.495,-2.41846 z m -25.77413,0.005 0.32762,5.2e-4 0.8382,2.10684 c 0.77754,1.95413 1.00445,2.37247 1.28726,2.37247 0.0383,0 0.0698,-0.32251 0.0698,-0.71675 0,-0.64339 0.0174,-0.71676 0.1695,-0.71676 0.10163,0 0.18996,0.0813 0.22066,0.20361 0.0695,0.27675 0.64462,0.93525 0.95859,1.09761 0.65482,0.33862 1.45883,0.0165 1.45883,-0.58446 0,-0.35274 -0.2046,-0.5453 -0.81545,-0.76843 -1.48181,-0.54127 -1.67313,-0.68001 -1.80506,-1.3038 -0.25476,-1.2046 1.10562,-2.03381 2.53679,-1.54616 0.31483,0.1073 0.4529,0.11916 0.5271,0.045 0.0552,-0.0552 0.17279,-0.10025 0.26149,-0.10025 0.14338,0 0.16123,0.0893 0.16123,0.80615 0,0.70836 -0.0188,0.80644 -0.15658,0.80615 -0.10124,-2.2e-4 -0.21508,-0.14241 -0.32143,-0.40101 -0.24104,-0.58616 -0.68463,-0.94257 -1.17254,-0.94257 -0.44317,0 -0.73212,0.19222 -0.81442,0.54157 -0.095,0.40334 0.21799,0.66556 1.17357,0.98391 1.01413,0.33786 1.41694,0.67016 1.51464,1.24851 0.0907,0.53682 -0.22788,1.14234 -0.75241,1.42937 -0.54128,0.29618 -1.48515,0.34634 -2.13682,0.11369 -0.39173,-0.1398 -0.48762,-0.14803 -0.57102,-0.0476 -0.13252,0.15965 -2.89004,0.17826 -2.83704,0.0191 0.0186,-0.0558 0.17335,-0.1474 0.34365,-0.2036 0.34824,-0.11493 0.35542,-0.18538 0.0827,-0.82166 l -0.1726,-0.40307 -0.82527,0.0258 -0.82476,0.0258 -0.15296,0.44339 c -0.18746,0.54333 -0.15047,0.65595 0.23978,0.72915 0.173,0.0324 0.30541,0.11079 0.30541,0.18139 0,0.0982 -0.19801,0.12454 -0.94103,0.12454 -0.77653,0 -0.94103,-0.0234 -0.94103,-0.13436 0,-0.0739 0.0764,-0.13436 0.1695,-0.13436 0.34184,0 0.56298,-0.33884 1.13998,-1.74718 1.24209,-3.03164 1.08288,-2.7332 1.45418,-2.73265 z m -18.71721,0.006 c 0.2943,-9.9e-4 0.58636,0.0429 0.88212,0.13074 0.37294,0.1108 0.49529,0.11522 0.63924,0.0253 0.0979,-0.0612 0.20232,-0.0865 0.23202,-0.0568 0.0297,0.0297 0.0779,0.42135 0.10697,0.87023 0.0505,0.77894 0.0447,0.81597 -0.1297,0.81597 -0.11609,0 -0.20172,-0.0755 -0.23462,-0.20671 -0.0784,-0.31225 -0.54846,-0.97099 -0.78703,-1.10329 -0.11613,-0.0644 -0.39963,-0.1184 -0.62993,-0.1204 -0.8389,-0.006 -1.28651,0.71551 -1.27951,2.06344 0.007,1.33322 0.447,2.05517 1.25315,2.05517 0.21566,0 0.49624,-0.0478 0.62374,-0.10594 0.22161,-0.10098 0.23057,-0.13324 0.20567,-0.73897 l -0.0258,-0.63355 -0.3359,-0.0832 c -0.1848,-0.0457 -0.33589,-0.13634 -0.33589,-0.20154 0,-0.0925 0.2654,-0.11834 1.20923,-0.11834 0.92342,0 1.20974,0.0271 1.20974,0.11472 0,0.0631 -0.119,0.15956 -0.26458,0.21446 -0.2563,0.0967 -0.26576,0.12065 -0.29146,0.75861 l -0.0264,0.65939 -0.62735,0.21032 c -0.80385,0.26989 -1.82017,0.33008 -2.40658,0.14211 -0.55606,-0.17824 -1.22887,-0.83491 -1.38131,-1.34824 -0.14052,-0.47316 -0.14031,-1.29979 5.2e-4,-1.77146 0.16841,-0.564 0.89203,-1.25815 1.49655,-1.43557 0.30598,-0.0899 0.6028,-0.13544 0.8971,-0.13643 z m 27.18594,5.2e-4 c 0.2862,-0.0163 0.5894,0.0278 0.93431,0.13022 0.37294,0.1108 0.49528,0.11522 0.63924,0.0253 0.0979,-0.0608 0.19435,-0.0926 0.21445,-0.0698 0.02,0.0228 0.0603,0.39459 0.0894,0.82579 0.048,0.71179 0.0384,0.78393 -0.10645,0.78393 -0.1041,0 -0.2337,-0.15866 -0.3731,-0.4563 -0.29499,-0.62981 -0.62303,-0.8878 -1.12758,-0.8878 -0.30565,0 -0.45224,0.0523 -0.62012,0.22014 -0.41897,0.41897 -0.20892,0.89148 0.51418,1.15755 0.21235,0.0781 0.61516,0.22515 0.89555,0.32711 0.72158,0.26239 1.05834,0.66435 1.05834,1.26349 0,0.25421 -0.0631,0.55995 -0.14315,0.69557 -0.17441,0.29522 -0.62137,0.61199 -1.02991,0.72915 -0.46278,0.13275 -1.14927,0.099 -1.67225,-0.0816 -0.39207,-0.1355 -0.48752,-0.14243 -0.57102,-0.0419 -0.0551,0.0665 -0.1757,0.12093 -0.2682,0.12093 -0.15272,0 -0.16847,-0.0782 -0.16847,-0.85112 0,-1.02259 0.1119,-1.09937 0.52762,-0.36276 0.1516,0.26862 0.42698,0.59113 0.61185,0.71675 0.69993,0.47561 1.63814,0.19778 1.63814,-0.48473 0,-0.38562 -0.23352,-0.57475 -1.0418,-0.84439 -0.38798,-0.12943 -0.83419,-0.31379 -0.99167,-0.40979 -0.59488,-0.36277 -0.78321,-0.98528 -0.49557,-1.63556 0.14516,-0.32814 0.26533,-0.44597 0.65422,-0.63976 0.2765,-0.13778 0.54579,-0.21419 0.83199,-0.23047 z m -59.651656,0.005 c 0.256724,0.003 0.510732,0.042 0.748274,0.12093 0.34321,0.114 0.495024,0.12871 0.567924,0.0558 0.05471,-0.0547 0.17175,-0.0992 0.26045,-0.0992 0.143988,0 0.16123,0.0912 0.16123,0.85111 0,0.75203 -0.01804,0.85101 -0.15658,0.84801 -0.103531,-0.002 -0.238195,-0.1834 -0.396875,-0.53485 -0.286134,-0.63373 -0.64312,-0.89454 -1.224731,-0.89504 -0.321637,-2.7e-4 -0.441457,0.0513 -0.68523,0.29508 -0.372267,0.37225 -0.491845,0.80157 -0.492476,1.76836 -4.03e-4,0.61605 0.03868,0.84291 0.201021,1.16427 0.509096,1.00774 1.589654,1.07951 2.400371,0.15968 0.266083,-0.30186 0.334953,-0.33912 0.424263,-0.23151 0.211857,0.25527 -0.585506,1.05539 -1.230416,1.23455 v -5.1e-4 c -0.384312,0.1072 -1.111157,0.10283 -1.494482,-0.008 -0.527373,-0.15284 -1.132594,-0.63927 -1.367875,-1.09968 -0.434606,-0.85045 -0.317841,-2.06554 0.266133,-2.77037 0.453637,-0.54789 1.248822,-0.86652 2.018999,-0.85835 z m 21.436934,0.004 c 0.336086,-0.0241 0.687684,0.0115 1.039213,0.11369 0.687443,0.19985 1.390896,0.87652 1.566829,1.5074 0.15486,0.55533 0.0825,1.44446 -0.15555,1.911 -0.265091,0.51965 -0.823356,0.9876 -1.373038,1.15083 -1.282622,0.3809 -2.608758,-0.10205 -3.140377,-1.14412 -0.258287,-0.50628 -0.315476,-1.35067 -0.129708,-1.90996 0.315127,-0.94876 1.184374,-1.55663 2.192631,-1.62884 z m 16.462562,0 c 0.20726,0.0155 0.41911,0.0543 0.63304,0.11782 1.06815,0.31721 1.67206,1.12156 1.68206,2.24069 0.009,1.05782 -0.41898,1.75299 -1.38234,2.24483 -0.19299,0.0985 -0.57192,0.17168 -0.98547,0.19068 -1.56347,0.0719 -2.64341,-0.91235 -2.62981,-2.39675 0.0136,-1.48359 1.23169,-2.50547 2.68252,-2.39727 z m 26.54567,0 c 0.33608,-0.0241 0.68716,0.0115 1.03869,0.11369 0.68745,0.19985 1.39142,0.87652 1.56735,1.5074 0.15486,0.55533 0.0825,1.44446 -0.15555,1.911 -0.2651,0.51965 -0.82387,0.9876 -1.37356,1.15083 -1.28262,0.3809 -2.60823,-0.10205 -3.13986,-1.14412 -0.25828,-0.50628 -0.31599,-1.35067 -0.13022,-1.90996 0.31512,-0.94876 1.18489,-1.55663 2.19315,-1.62884 z m -20.16467,0.002 c 0.84234,0.11376 1.27022,0.99209 0.45786,1.72599 l -0.36122,0.32608 0.47026,0.55552 c 0.25864,0.3056 0.50008,0.59076 0.53588,0.63356 0.0821,0.0981 0.4377,-0.58725 0.4377,-0.84336 0,-0.12945 -0.0861,-0.22307 -0.26872,-0.29197 -0.14783,-0.0558 -0.26872,-0.15343 -0.26872,-0.21653 0,-0.086 0.23608,-0.11472 0.94103,-0.11472 0.77653,0 0.94051,0.0234 0.94051,0.13436 0,0.082 -0.0834,0.13436 -0.21394,0.13436 -0.30401,0 -0.54539,0.22897 -0.94413,0.89452 l -0.34778,0.58032 0.17208,0.24185 c 0.2244,0.31514 0.70791,0.60968 1.1064,0.67438 0.18374,0.0298 0.31729,0.10315 0.31729,0.17415 0,0.0963 -0.20921,0.12299 -0.97048,0.12299 -0.90834,0 -0.98261,-0.0139 -1.17202,-0.21549 l -0.20206,-0.21498 -0.49454,0.25993 c -1.79835,0.94599 -3.32119,-0.98976 -1.63711,-2.08101 l 0.43201,-0.27957 -0.216,-0.32659 c -0.47318,-0.71503 -0.34379,-1.37009 0.33589,-1.69912 0.34238,-0.16574 0.66904,-0.21259 0.94981,-0.17467 z m 25.89196,0.003 c 0.21155,0.0172 0.42909,0.0574 0.65009,0.12299 0.33602,0.0998 0.49335,0.11366 0.51625,0.045 0.0181,-0.0543 0.11024,-0.0987 0.20464,-0.0987 0.15336,0 0.17212,0.0695 0.17312,0.64957 7e-4,0.35727 0.0256,0.74023 0.0553,0.85111 0.0427,0.1594 0.0168,0.20154 -0.12351,0.20154 -0.12567,0 -0.22099,-0.11123 -0.32659,-0.38085 -0.28097,-0.71745 -0.70207,-1.05265 -1.32188,-1.05265 -0.34847,0 -0.46756,0.0464 -0.68989,0.26871 -0.37644,0.37646 -0.50223,0.81449 -0.50126,1.74718 0.001,1.24886 0.3845,1.8814 1.20613,1.99161 0.49126,0.0659 0.92246,-0.11305 1.32602,-0.55087 0.36618,-0.39723 0.6295,-0.4311 0.51366,-0.0661 -0.0894,0.28182 -0.79839,0.86455 -1.19682,0.98392 -0.19343,0.0579 -0.54893,0.10221 -0.78962,0.0992 -1.43151,-0.0204 -2.36213,-0.95365 -2.36213,-2.36833 0,-1.54175 1.1857,-2.56353 2.6665,-2.44326 z m 20.47162,0.003 c 0.32747,-0.0199 0.67281,0.0153 0.95808,0.11007 0.34329,0.114 0.49503,0.12871 0.56793,0.0558 0.0547,-0.0547 0.17226,-0.0992 0.26096,-0.0992 0.14338,0 0.16123,0.0893 0.16123,0.80615 0,0.95934 -0.13583,1.06259 -0.48679,0.37 -0.31587,-0.62334 -0.68487,-0.90743 -1.1777,-0.90743 -0.48517,0 -0.755,0.22927 -0.755,0.64233 0,0.41901 0.198,0.57346 1.13379,0.88522 0.96966,0.32305 1.3296,0.58387 1.47484,1.06867 0.20349,0.67918 -0.0766,1.28233 -0.75758,1.63143 -0.53159,0.27247 -1.48205,0.31074 -2.09289,0.0837 -0.39812,-0.14794 -0.48153,-0.15483 -0.57103,-0.047 -0.1738,0.20942 -0.35174,0.14853 -0.35243,-0.12041 -4e-4,-0.13552 -0.0265,-0.51847 -0.0579,-0.85111 -0.0535,-0.56619 -0.0452,-0.60462 0.12454,-0.60462 0.11942,0 0.22163,0.0977 0.29973,0.28629 0.15342,0.3704 0.57886,0.85267 0.89762,1.01751 0.43189,0.22334 0.95153,0.1683 1.25212,-0.13229 0.52276,-0.52275 0.24691,-0.95456 -0.83665,-1.31 -0.94288,-0.3093 -1.26642,-0.50756 -1.44539,-0.8847 -0.31482,-0.66347 -0.0837,-1.40988 0.55139,-1.78077 0.21411,-0.12504 0.52365,-0.19976 0.85111,-0.21962 z m -87.337818,0.0667 c 1.095105,0 1.299145,0.0211 1.299145,0.13436 0,0.0761 -0.08021,0.13436 -0.185001,0.13436 -0.1018,0 -0.263315,0.0415 -0.358635,0.0925 -0.153549,0.0822 -0.173116,0.19495 -0.173116,0.98598 0,0.49106 0.02256,0.89246 0.05013,0.89246 0.234718,0 1.777595,-1.63992 1.716175,-1.82418 -0.01776,-0.0533 -0.127505,-0.11936 -0.243396,-0.14676 -0.115892,-0.0274 -0.226934,-0.099 -0.247014,-0.15917 -0.02737,-0.0821 0.223513,-0.10955 1.001489,-0.10955 0.788798,0 1.037663,0.0277 1.037663,0.11575 0,0.0637 -0.188589,0.1663 -0.419096,0.2279 -0.329893,0.0882 -0.568715,0.25902 -1.122412,0.80253 l -0.703316,0.6904 0.937411,1.17512 c 0.745862,0.93478 1.012178,1.20499 1.301729,1.32085 0.595044,0.2381 0.443197,0.3266 -0.561206,0.3266 H 81.82498 l -0.799435,-1.07487 c -0.439856,-0.5912 -0.850489,-1.07524 -0.912089,-1.07539 -0.12506,-3.1e-4 -0.162633,1.48371 -0.04237,1.67277 0.0367,0.0577 0.177099,0.13249 0.312125,0.16639 0.135026,0.0339 0.245463,0.11796 0.245463,0.18656 0,0.10059 -0.243191,0.12454 -1.261421,0.12454 -0.969426,0 -1.253589,-0.0261 -1.225249,-0.11214 0.02029,-0.0616 0.134392,-0.12615 0.253732,-0.14315 0.432978,-0.0618 0.441316,-0.0994 0.441316,-2.07584 v -1.86087 l -0.358634,-0.14314 c -0.634366,-0.25385 -0.430244,-0.32401 0.941028,-0.32401 z m 11.961544,0 c 1.108582,0 1.344104,0.0225 1.344104,0.12867 0,0.0797 -0.111082,0.13918 -0.291456,0.15658 -0.211918,0.0204 -0.287952,0.0708 -0.279052,0.18397 0.01743,0.22165 0.940554,1.86356 1.020092,1.81436 0.03639,-0.0225 0.29796,-0.42403 0.58136,-0.89245 0.542158,-0.89609 0.559554,-1.07327 0.111621,-1.13947 -0.103439,-0.0153 -0.204502,-0.0784 -0.224792,-0.14004 -0.02787,-0.0846 0.183905,-0.11162 0.866614,-0.11162 0.681252,0 0.903304,0.0285 0.903304,0.11627 0,0.064 -0.142116,0.16768 -0.315743,0.23048 -0.259802,0.094 -0.441082,0.30502 -1.024227,1.19217 -0.648963,0.98728 -0.713859,1.1275 -0.771529,1.66605 -0.08039,0.75069 0.01261,1.02041 0.38809,1.1281 0.159561,0.0458 0.289905,0.13784 0.289905,0.20464 0,0.0966 -0.265671,0.12144 -1.299146,0.12144 -1.095104,0 -1.299145,-0.0211 -1.299145,-0.13436 0,-0.0875 0.08736,-0.13436 0.25063,-0.13436 0.391269,0 0.466122,-0.14612 0.466122,-0.91106 v -0.69608 l -0.637171,-1.07952 c -0.640327,-1.08493 -0.947304,-1.43505 -1.256771,-1.43505 -0.09192,0 -0.166914,-0.0605 -0.166914,-0.13436 0,-0.1135 0.209178,-0.13436 1.344104,-0.13436 z m 9.934794,0 h 0.88522 l 1.24282,1.53841 1.2423,1.53789 0.0253,-1.07746 c 0.0296,-1.27112 -0.0338,-1.49347 -0.46819,-1.65054 -0.1753,-0.0634 -0.31833,-0.16803 -0.31833,-0.23203 0,-0.0884 0.23685,-0.11627 0.98547,-0.11627 0.81635,0 0.98547,0.023 0.98547,0.13436 0,0.0739 -0.0759,0.13436 -0.16898,0.13436 -0.0931,0 -0.26452,0.0774 -0.38086,0.17156 -0.20916,0.16932 -0.21217,0.19313 -0.24287,2.1947 l -0.031,2.02417 -0.28267,-0.005 c -0.25742,-0.004 -0.406,-0.15807 -1.67122,-1.73065 l -1.38854,-1.72599 -0.0248,1.38493 c -0.0273,1.52753 0.009,1.65169 0.52659,1.76527 0.14273,0.0314 0.25993,0.11397 0.25993,0.18397 l -5.2e-4,5.1e-4 c 0,0.10258 -0.19987,0.12713 -1.03043,0.12713 -0.85617,0 -1.03042,-0.0227 -1.03042,-0.13436 0,-0.0757 0.0803,-0.13436 0.18345,-0.13436 0.1008,0 0.28211,-0.0992 0.40307,-0.22014 0.21692,-0.21687 0.22014,-0.2419 0.22014,-1.79886 v -1.57871 l -0.26199,-0.262 c -0.14405,-0.14404 -0.32538,-0.262 -0.40308,-0.262 -0.0777,0 -0.14159,-0.0605 -0.14159,-0.13436 0,-0.1104 0.15841,-0.13436 0.88573,-0.13436 z m 54.48711,0 h 2.24018 2.24017 v 0.67179 c 0,0.51131 -0.0295,0.6718 -0.12351,0.6718 -0.0679,0 -0.16994,-0.1109 -0.22634,-0.24702 -0.19296,-0.46586 -0.48065,-0.72125 -0.88418,-0.78445 l -0.38241,-0.0599 0.0243,1.99368 0.0238,1.99419 0.30851,0.10335 c 0.1695,0.057 0.32373,0.15161 0.34313,0.20981 0.0261,0.0782 -0.31838,0.10594 -1.32343,0.10594 -1.04708,0 -1.35029,-0.0258 -1.32189,-0.11214 0.0203,-0.0616 0.13439,-0.12615 0.25373,-0.14315 0.43498,-0.0621 0.4408,-0.0919 0.4408,-2.18281 v -1.96835 l -0.38085,0.0599 c -0.40169,0.0628 -0.68946,0.31883 -0.88212,0.78393 -0.0564,0.13612 -0.15844,0.24702 -0.22634,0.24702 -0.094,0 -0.12351,-0.16049 -0.12351,-0.6718 z m 6.67505,0 h 2.10581 v 0.58239 c 0,0.51589 -0.0197,0.5824 -0.17311,0.5824 -0.0952,0 -0.1963,-0.0734 -0.2248,-0.1633 -0.0285,-0.0899 -0.17102,-0.27736 -0.31626,-0.41651 -0.22985,-0.22015 -0.35135,-0.25893 -0.93947,-0.29663 l -0.67593,-0.0434 v 0.90796 0.90795 h 0.36432 c 0.48012,0 0.69874,-0.12813 0.85421,-0.50022 0.0704,-0.16851 0.18767,-0.30644 0.26097,-0.30644 0.1094,0 0.13332,0.16826 0.13332,0.94102 0,0.77276 -0.0239,0.94051 -0.13332,0.94051 -0.0733,0 -0.1896,-0.13546 -0.2589,-0.30127 -0.13385,-0.32035 -0.48691,-0.50488 -0.96532,-0.50488 h -0.25528 v 0.8847 c 0,1.08055 0.042,1.13448 0.8878,1.12448 0.73518,-0.008 0.88197,-0.0871 1.21801,-0.65526 0.14784,-0.24993 0.31874,-0.45532 0.38034,-0.4563 0.1228,-0.002 0.14928,0.5245 0.0548,1.09606 l -0.0558,0.3359 H 162.556 c -1.88113,0 -2.18333,-0.0186 -2.18333,-0.13436 0,-0.0761 0.0802,-0.13436 0.185,-0.13436 0.1018,0 0.26334,-0.042 0.35864,-0.093 0.16271,-0.0871 0.17311,-0.20519 0.17311,-1.92133 0,-1.78801 -0.004,-1.83146 -0.19895,-1.96784 -0.10952,-0.0767 -0.27104,-0.13952 -0.35864,-0.13952 -0.0876,0 -0.15916,-0.0605 -0.15916,-0.13436 0,-0.1157 0.2934,-0.13436 2.1053,-0.13436 z m -77.1586,0.0124 c 0.240078,-0.0143 0.660081,-0.0109 1.379761,0.003 1.467051,0.0284 1.731501,0.0565 2.083593,0.21859 0.974044,0.44853 1.376028,1.05817 1.381828,2.09548 0.003,0.5255 -0.03936,0.75286 -0.193786,1.04387 -0.244025,0.45984 -0.734956,0.87423 -1.272791,1.07383 -0.309427,0.11484 -0.80382,0.16077 -2.043286,0.19017 -1.45341,0.0344 -1.635559,0.0227 -1.635559,-0.10438 0,-0.0968 0.08121,-0.14263 0.251147,-0.14263 0.447489,0 0.465605,-0.0784 0.465605,-1.98179 0,-0.97171 -0.02383,-1.82975 -0.05323,-1.90635 -0.0294,-0.0766 -0.190912,-0.16487 -0.358634,-0.19637 -0.183992,-0.0345 -0.304891,-0.11007 -0.304891,-0.19017 0,-0.0569 0.06016,-0.089 0.30024,-0.10335 z m 12.451953,0.25632 c -0.33894,0 -0.453677,0.0485 -0.700732,0.29559 -0.372135,0.37212 -0.49196,0.80231 -0.49196,1.76526 0,0.93777 0.107745,1.34749 0.460954,1.74977 0.240841,0.27435 0.324699,0.31109 0.705383,0.31109 0.356473,0 0.476579,-0.0451 0.689881,-0.25838 0.350041,-0.35004 0.472322,-0.81638 0.472322,-1.80248 0,-0.9861 -0.122281,-1.45243 -0.472322,-1.80247 -0.208617,-0.20859 -0.336324,-0.25838 -0.663526,-0.25838 z m 16.075507,0 c -0.81541,0 -1.18598,0.6438 -1.18598,2.06085 0,0.97016 0.18219,1.58603 0.55656,1.88051 0.15233,0.11986 0.36402,0.18035 0.632,0.18035 0.34395,0 0.44621,-0.0456 0.69712,-0.31161 0.3329,-0.35297 0.48886,-0.91103 0.48886,-1.74925 0,-1.33458 -0.41885,-2.06085 -1.18856,-2.06085 z m 6.47454,0 c -0.30274,0 -0.44804,0.15296 -0.44804,0.4718 0,0.2762 0.1171,0.55011 0.34624,0.81236 0.13799,0.15793 0.15118,0.155 0.34674,-0.0724 0.14238,-0.16549 0.20309,-0.35033 0.20309,-0.6165 0,-0.43771 -0.11864,-0.59531 -0.44803,-0.59531 z m 20.45766,0 c -0.33894,0 -0.45315,0.0485 -0.70021,0.29559 -0.37214,0.37212 -0.49248,0.80231 -0.49248,1.76526 0,0.93777 0.10826,1.34749 0.46147,1.74977 0.24084,0.27435 0.32418,0.31109 0.70487,0.31109 0.35647,0 0.4771,-0.0451 0.6904,-0.25838 0.35005,-0.35004 0.4718,-0.81638 0.4718,-1.80248 0,-0.9861 -0.12175,-1.45243 -0.4718,-1.80247 -0.20861,-0.20859 -0.33685,-0.25838 -0.66405,-0.25838 z m -53.833403,0.045 v 1.9234 1.92391 l 0.224276,0.11628 c 0.463102,0.24076 1.140516,-0.04 1.477946,-0.61289 0.148509,-0.25212 0.179317,-0.46575 0.179317,-1.2454 0,-0.83749 -0.02436,-0.9846 -0.223759,-1.33945 -0.27566,-0.49055 -0.672182,-0.73228 -1.231449,-0.75138 z m 66.013023,0.80616 -0.10904,0.26871 c -0.0598,0.14784 -0.20419,0.52089 -0.32091,0.82889 l -0.21187,0.56018 h 0.66663 0.66662 l -0.185,-0.47078 c -0.10166,-0.25872 -0.25721,-0.63125 -0.34571,-0.82837 z m -26.09401,0.045 c -0.0479,3.3e-4 -0.62942,1.43016 -0.62942,1.5477 0,0.0357 0.28642,0.0651 0.63665,0.0651 0.47193,0 0.62621,-0.0291 0.59531,-0.11214 -0.0229,-0.0616 -0.15736,-0.42423 -0.29868,-0.80615 -0.14133,-0.38192 -0.27806,-0.69471 -0.30386,-0.69453 z m -78.320803,0.93534 c 0.348119,0.0285 0.70187,0.10016 1.055749,0.21962 0.447845,0.15118 0.535429,0.15722 0.693498,0.0465 0.28886,-0.20236 0.52785,-0.16479 0.47749,0.0749 -0.02329,0.11088 -0.134479,0.65703 -0.24753,1.21388 -0.185015,0.9113 -0.223707,1.01019 -0.387056,0.98599 -0.141688,-0.021 -0.20377,-0.13511 -0.28267,-0.51987 -0.207198,-1.01043 -0.700394,-1.52571 -1.526005,-1.59421 -1.210605,-0.10039 -2.092564,0.93599 -2.423625,2.8484 -0.328178,1.89576 0.245449,2.96086 1.592151,2.95486 0.631269,-0.003 1.128657,-0.2418 1.76475,-0.84853 0.357572,-0.34106 0.567575,-0.4794 0.668176,-0.4408 0.08068,0.0309 0.146761,0.0841 0.146761,0.11834 0,0.0342 -0.204046,0.29096 -0.453202,0.57051 -0.321312,0.3605 -0.64211,0.60174 -1.103808,0.82992 -0.756981,0.37407 -1.663295,0.47845 -2.430343,0.28009 -1.290354,-0.33369 -1.929451,-1.11587 -1.999361,-2.44791 -0.134738,-2.56709 2.018191,-4.49115 4.455025,-4.29173 z m 5.073075,0.14004 c 1.684192,0 1.726695,0.004 1.681035,0.1788 -0.02629,0.1005 -0.121805,0.17932 -0.218075,0.17932 -0.09439,0 -0.309201,0.0575 -0.476973,0.12764 -0.338908,0.14161 -0.351893,0.17336 -0.711068,1.73168 -0.190299,0.8256 -0.196908,0.91829 -0.0646,0.91829 0.177092,0 1.940835,-1.41092 2.554883,-2.0438 0.47024,-0.48468 0.504812,-0.73381 0.10232,-0.73381 -0.167081,0 -0.22686,-0.0473 -0.22686,-0.17932 0,-0.1692 0.06008,-0.1788 1.120345,-0.1788 1.108833,0 1.119828,0.002 1.119828,0.20567 0,0.15711 -0.07964,0.23467 -0.335896,0.32557 -0.1848,0.0656 -0.515735,0.23887 -0.735356,0.3855 -0.535263,0.35738 -2.154391,1.70194 -2.154391,1.78904 0,0.16803 1.829063,3.04411 2.04277,3.21221 0.130701,0.10281 0.351398,0.20981 0.490926,0.23771 0.173698,0.0347 0.238162,0.0916 0.204122,0.18035 -0.02734,0.0712 -0.04961,0.14631 -0.04961,0.16691 0,0.0207 -0.534568,0.037 -1.187524,0.0362 l -1.187008,-0.002 -0.202571,-0.46922 c -0.111573,-0.25797 -0.475398,-0.93253 -0.80822,-1.49913 -0.837112,-1.42518 -0.898469,-1.42272 -1.231449,0.048 -0.285582,1.26142 -0.268065,1.37504 0.235645,1.51257 0.38067,0.10394 0.363712,0.0887 0.296622,0.26355 v 5.2e-4 c -0.04965,0.12942 -0.26165,0.14728 -1.749247,0.14728 -1.593303,0 -1.69292,-0.01 -1.69292,-0.16743 0,-0.12853 0.08625,-0.17874 0.371554,-0.21704 0.204349,-0.0274 0.446878,-0.12493 0.538468,-0.21653 0.115479,-0.11548 0.330402,-0.88002 0.701766,-2.49339 0.294547,-1.27964 0.536566,-2.43263 0.537435,-2.56211 0.0019,-0.27903 -0.141083,-0.4158 -0.511597,-0.4899 -0.21177,-0.0423 -0.262026,-0.0917 -0.227376,-0.22427 0.04177,-0.15975 0.150661,-0.17002 1.773018,-0.17002 z m 65.913288,0.21188 c -0.0999,-0.0333 -0.19144,0.0908 -0.28784,0.38292 -0.19288,0.58444 0.10683,1.16332 0.67955,1.31155 0.21337,0.0552 0.68327,-0.0157 0.79427,-0.11989 0.0466,-0.0438 -0.14307,-0.34636 -0.44804,-0.71469 -0.29087,-0.35128 -0.5768,-0.69973 -0.6351,-0.77463 -0.0356,-0.0457 -0.0695,-0.0742 -0.10284,-0.0853 z m -23.742735,6.32829 c 0.449037,0 0.732548,0.16595 0.927592,0.54312 0.130126,0.25166 0.12773,0.26303 -0.05478,0.26303 -0.105053,0 -0.27051,-0.10056 -0.36742,-0.22376 -0.22645,-0.28791 -0.790828,-0.31297 -1.056783,-0.047 -0.355086,0.3551 -0.350118,1.11032 0.0098,1.49345 0.280692,0.29883 0.806917,0.29225 1.046964,-0.0129 0.09691,-0.1232 0.262367,-0.22376 0.36742,-0.22376 0.182511,0 0.184907,0.0114 0.05478,0.26303 -0.0749,0.14485 -0.226091,0.3267 -0.335897,0.4036 -0.111317,0.0779 -0.384047,0.13952 -0.615983,0.13952 -0.702046,0 -1.156519,-0.51223 -1.156519,-1.30328 0,-0.81795 0.434687,-1.29501 1.180807,-1.29501 z m 1.865519,0 h 0.223759 0.224276 v 1.29915 1.29914 h -0.224276 -0.223759 v -1.29914 z m 2.239657,0 c 0.925899,0 0.985989,0.011 0.985989,0.17932 0,0.1527 -0.0601,0.17932 -0.4036,0.17932 h -0.40307 v 1.11982 c 0,1.06029 -0.01,1.11983 -0.179319,1.11983 -0.169599,0 -0.178801,-0.0596 -0.178801,-1.11983 v -1.11982 h -0.403593 c -0.343466,0 -0.403076,-0.0267 -0.403076,-0.17932 0,-0.1683 0.05961,-0.17932 0.98547,-0.17932 z m 1.792139,0 h 0.22428 0.22375 v 1.29915 1.29914 h -0.22375 -0.22428 v -1.29914 z m 1.52342,0 c 0.1667,0 0.1788,0.06 0.1788,0.85731 0,1.14488 0.12462,1.37831 0.73432,1.38131 0.51128,0.002 0.60979,-0.21097 0.60979,-1.31774 0,-0.86116 0.0117,-0.92088 0.17931,-0.92088 0.1689,0 0.17932,0.0596 0.17932,1.03715 0,1.02701 -0.003,1.03983 -0.262,1.29914 -0.21852,0.21853 -0.33368,0.2619 -0.69453,0.2589 -0.89982,-0.007 -1.09723,-0.2986 -1.10123,-1.63194 -0.003,-0.9045 0.008,-0.96325 0.17622,-0.96325 z m 3.73104,0 c 0.50365,0 0.6412,0.064 0.79995,0.37104 0.12159,0.23513 0.12053,0.26497 -0.0145,0.31677 -0.0937,0.0359 -0.20317,-0.0111 -0.29455,-0.1266 -0.32459,-0.41015 -1.03241,-0.31655 -0.98031,0.12971 0.0246,0.2111 0.1044,0.26897 0.60772,0.44183 0.3185,0.10938 0.63113,0.26987 0.69453,0.35657 0.18452,0.25235 0.13788,0.64657 -0.1049,0.88935 -0.18105,0.18102 -0.30849,0.21962 -0.72089,0.21962 -0.4124,0 -0.53983,-0.0386 -0.72089,-0.21962 -0.12092,-0.12096 -0.21962,-0.28244 -0.21962,-0.35864 0,-0.19374 0.29362,-0.17311 0.42013,0.0295 0.24861,0.39809 1.05833,0.27036 1.05833,-0.16692 0,-0.19152 -0.0828,-0.25061 -0.62735,-0.44906 -0.46654,-0.17001 -0.65591,-0.28855 -0.74001,-0.46406 -0.23279,-0.4857 0.18752,-0.96945 0.84233,-0.96945 z m 5.48597,0 c 0.24925,0 0.26999,0.0373 0.69401,1.22783 0.24053,0.67536 0.45128,1.25995 0.46768,1.29915 0.0164,0.0392 -0.0681,0.0713 -0.18759,0.0713 -0.17587,0 -0.23763,-0.068 -0.32453,-0.35812 l -0.10749,-0.35863 h -0.53071 -0.5302 l -0.10749,0.35863 c -0.0873,0.29129 -0.14825,0.35812 -0.32659,0.35812 -0.17281,0 -0.20642,-0.0331 -0.15762,-0.15658 0.0961,-0.24297 0.85318,-2.38677 0.85318,-2.41587 0,-0.0142 0.11596,-0.0258 0.25735,-0.0258 z m 1.89342,0 h 0.22376 0.22376 v 1.12035 1.11982 h 0.58239 c 0.5227,0 0.5824,0.0185 0.5824,0.17932 0,0.16589 -0.0595,0.1788 -0.80615,0.1788 h -0.80616 v -1.29914 z m 2.95641,0 c 0.9259,0 0.98599,0.011 0.98599,0.17932 0,0.1527 -0.0601,0.17932 -0.40359,0.17932 h -0.40308 v 1.11982 c 0,1.06029 -0.01,1.11983 -0.17932,1.11983 -0.1692,0 -0.17932,-0.0596 -0.17932,-1.11983 v -1.11982 h -0.40307 c -0.34349,0 -0.40308,-0.0267 -0.40308,-0.17932 0,-0.1683 0.0596,-0.17932 0.98547,-0.17932 z m 1.79214,0 h 0.22376 0.22428 v 1.29915 1.29914 h -0.22428 -0.22376 v -1.29914 z m 1.52342,0 c 0.1667,0 0.1788,0.06 0.1788,0.85731 0,1.14488 0.12464,1.37831 0.73432,1.38131 0.51128,0.002 0.60979,-0.21097 0.60979,-1.31774 0,-0.86116 0.0117,-0.92088 0.17931,-0.92088 0.1689,0 0.17932,0.0596 0.17932,1.03715 0,1.02701 -0.003,1.04035 -0.262,1.29966 -0.21852,0.21853 -0.33367,0.26138 -0.69453,0.25838 -0.89982,-0.007 -1.09722,-0.2986 -1.10122,-1.63194 -0.003,-0.9045 0.008,-0.96325 0.17621,-0.96325 z m 3.73052,0 c 0.50366,0 0.64172,0.064 0.80047,0.37104 0.12159,0.23513 0.12002,0.26497 -0.015,0.31677 -0.0937,0.0359 -0.20264,-0.0111 -0.29404,-0.1266 -0.32459,-0.41015 -1.03241,-0.31655 -0.98031,0.12971 0.0246,0.2111 0.1044,0.26897 0.60772,0.44183 0.3185,0.10938 0.63061,0.26987 0.69401,0.35657 0.18452,0.25235 0.1384,0.64657 -0.10438,0.88935 -0.18105,0.18102 -0.30849,0.21962 -0.72089,0.21962 -0.4124,0 -0.53984,-0.0386 -0.72088,-0.21962 -0.12092,-0.12096 -0.21963,-0.28244 -0.21963,-0.35864 0,-0.19374 0.29362,-0.17311 0.42013,0.0295 0.24861,0.39809 1.05782,0.27036 1.05782,-0.16692 0,-0.19152 -0.0823,-0.2501 -0.62684,-0.44855 -0.46654,-0.17001 -0.65591,-0.28906 -0.74001,-0.46457 -0.23278,-0.4857 0.187,-0.96945 0.84181,-0.96945 z m 4.51239,0 h 0.80667 c 0.7467,0 0.80615,0.0134 0.80615,0.17932 0,0.1621 -0.0599,0.17932 -0.62735,0.17932 h -0.62684 v 0.40307 0.40308 h 0.5824 c 0.5227,0 0.58239,0.0185 0.58239,0.17932 0,0.1608 -0.0597,0.17931 -0.58239,0.17931 h -0.5824 v 0.53744 c 0,0.47789 -0.02,0.53795 -0.17931,0.53795 -0.1712,0 -0.17932,-0.0602 -0.17932,-1.29966 z m 5.55522,0 h 0.66714 c 0.5744,0 0.70147,0.0297 0.91622,0.21446 0.32887,0.28293 0.34957,0.83373 0.0434,1.15962 l -0.20619,0.21962 0.23048,0.45476 c 0.27679,0.54631 0.27737,0.55035 0.0522,0.55035 -0.12283,0 -0.26535,-0.15374 -0.45682,-0.49299 -0.23725,-0.4204 -0.31595,-0.493 -0.53795,-0.493 -0.25525,0 -0.26045,0.009 -0.26045,0.493 0,0.46589 -0.012,0.49299 -0.22376,0.49299 h -0.22427 v -1.29915 z m 3.58376,0 c 0.9259,0 0.98598,0.011 0.98598,0.17932 0,0.1527 -0.0601,0.17932 -0.40359,0.17932 h -0.40308 v 1.11982 c 0,1.06029 -0.01,1.12035 -0.17931,1.12035 -0.1692,0 -0.1788,-0.0601 -0.1788,-1.12035 v -1.11982 h -0.4036 c -0.3435,0 -0.40307,-0.0267 -0.40307,-0.17932 0,-0.1683 0.0596,-0.17932 0.98547,-0.17932 z m 1.79214,0 h 0.22427 0.22376 v 1.29966 1.29915 h -0.22376 -0.22427 v -1.29915 z m 1.52342,0 c 0.1667,0 0.1788,0.06 0.1788,0.85731 0,1.14488 0.12462,1.37831 0.73432,1.38131 0.51128,0.002 0.60978,-0.21097 0.60978,-1.31774 0,-0.86116 0.0117,-0.92088 0.17932,-0.92088 0.1689,0 0.17932,0.0601 0.17932,1.03766 0,1.02701 0.0237,1.05019 -0.23565,1.30948 -0.21852,0.21857 -0.36004,0.25105 -0.72089,0.24805 -0.8998,-0.007 -1.09722,-0.2986 -1.10122,-1.63194 -0.003,-0.9045 0.008,-0.96325 0.17622,-0.96325 z m 3.73104,0 c 0.50363,0 0.6412,0.064 0.79995,0.37104 0.12159,0.23513 0.12053,0.26497 -0.0145,0.31677 -0.0937,0.0359 -0.20316,-0.0111 -0.29456,-0.1266 -0.32459,-0.41015 -1.0324,-0.31604 -0.9803,0.13022 0.0246,0.21112 0.10439,0.26846 0.60771,0.44132 0.3185,0.10938 0.63114,0.26987 0.69454,0.35657 0.18452,0.25235 0.13787,0.64657 -0.10491,0.88935 -0.18105,0.18102 -0.30848,0.22014 -0.72088,0.22014 -0.4124,0 -0.53983,-0.0391 -0.72089,-0.22014 -0.12092,-0.12096 -0.21963,-0.28192 -0.21963,-0.35812 1e-5,-0.19374 0.29362,-0.17363 0.42013,0.0289 0.24861,0.39809 1.05834,0.27088 1.05834,-0.1664 0,-0.19152 -0.0828,-0.25062 -0.62735,-0.44907 -0.46654,-0.17001 -0.65591,-0.28906 -0.74001,-0.46457 -0.23279,-0.4857 0.18752,-0.96945 0.84233,-0.96945 z m -12.58115,0.007 c 0.23878,0.005 0.47167,0.0517 0.59635,0.13901 0.25601,0.17931 0.54415,0.78955 0.54415,1.1529 0,0.42049 -0.30651,1.00121 -0.61185,1.1591 v -5.2e-4 c -0.33451,0.17332 -0.87439,0.17609 -1.18701,0.006 -0.32222,-0.17511 -0.52677,-0.65138 -0.52606,-1.22318 6.4e-4,-0.52468 0.19698,-0.92121 0.55397,-1.11931 0.14735,-0.0818 0.39167,-0.11909 0.63045,-0.1142 z m 0.0253,0.3514 c -0.42312,0 -0.57092,0.0748 -0.72088,0.36483 -0.23883,0.46185 -0.0932,1.31967 0.24753,1.45676 0.30315,0.12197 0.71356,0.0507 0.92449,-0.1602 0.17933,-0.17931 0.22014,-0.30911 0.22014,-0.70435 0,-0.62482 -0.23306,-0.95704 -0.67128,-0.95704 z m 2.3735,0 v 0.44803 0.44804 h 0.38499 c 0.44255,0 0.60048,-0.11778 0.60048,-0.44804 0,-0.33026 -0.15793,-0.44803 -0.60048,-0.44803 z m -22.40225,0.0894 c -0.0584,0 -0.35605,0.88685 -0.35605,1.06091 0,0.0622 0.1485,0.10387 0.36897,0.10387 0.30885,0 0.36139,-0.0253 0.32349,-0.15658 -0.0249,-0.0862 -0.0983,-0.34831 -0.16329,-0.58239 -0.065,-0.23408 -0.14302,-0.42581 -0.17312,-0.42581 z m -3.46955,1.71875 c 0.13228,0.0188 0.20153,0.0901 0.20153,0.20774 0,0.11763 -0.0692,0.18894 -0.20153,0.20774 -0.16539,0.0235 -0.20154,-0.0138 -0.20154,-0.20774 0,-0.19394 0.0362,-0.23124 0.20154,-0.20774 z m 17.3824,0 c 0.1323,0.0188 0.20153,0.0901 0.20153,0.20774 0,0.11763 -0.0692,0.18894 -0.20153,0.20774 -0.1654,0.0235 -0.20206,-0.0138 -0.20206,-0.20774 0,-0.19394 0.0367,-0.23124 0.20206,-0.20774 z m 20.69744,0 c 0.13229,0.0188 0.20154,0.0901 0.20154,0.20774 0,0.11763 -0.0692,0.18894 -0.20154,0.20774 -0.1654,0.0235 -0.20154,-0.0138 -0.20154,-0.20774 0,-0.19394 0.0362,-0.23124 0.20154,-0.20774 z" /><path
       id="circle2"
       style="fill:#d4af37;fill-opacity:1;stroke:#000000;stroke-width:0;stroke-linejoin:bevel;paint-order:stroke markers fill;filter:url(#filter2)"
       d="m 51.012386,135.85989 a 13.198316,13.198316 0 0 0 -13.198677,13.19816 13.198316,13.198316 0 0 0 13.198677,13.19868 13.198316,13.198316 0 0 0 13.198161,-13.19868 13.198316,13.198316 0 0 0 -13.198161,-13.19816 z m 0,1.87947 a 11.318836,11.318836 0 0 1 11.318689,11.31869 11.318836,11.318836 0 0 1 -11.318689,11.3192 11.318836,11.318836 0 0 1 -11.319205,-11.3192 11.318836,11.318836 0 0 1 11.319205,-11.31869 z" /></g></svg>
