<?xml version="1.0" encoding="UTF-8" standalone="no"?>
<!-- Created with Inkscape (http://www.inkscape.org/) -->

<svg
   width="210mm"
   height="297mm"
   viewBox="0 0 210 297"
   version="1.1"
   id="svg1"
   xml:space="preserve"
   inkscape:export-filename="ck-dyongo-and-associates-new-logo.svg"
   inkscape:export-xdpi="96"
   inkscape:export-ydpi="96"
   sodipodi:docname="ck-dyongo-and-associates-new-logo-designed-by-reserved-designs.svg"
   inkscape:version="1.3.2 (091e20e, 2023-11-25, custom)"
   xmlns:inkscape="http://www.inkscape.org/namespaces/inkscape"
   xmlns:sodipodi="http://sodipodi.sourceforge.net/DTD/sodipodi-0.dtd"
   xmlns="http://www.w3.org/2000/svg"
   xmlns:svg="http://www.w3.org/2000/svg"><sodipodi:namedview
     id="namedview1"
     pagecolor="#ffffff"
     bordercolor="#000000"
     borderopacity="0.25"
     inkscape:showpageshadow="2"
     inkscape:pageopacity="0.0"
     inkscape:pagecheckerboard="0"
     inkscape:deskcolor="#d1d1d1"
     inkscape:document-units="mm"
     inkscape:zoom="0.55370687"
     inkscape:cx="615.84932"
     inkscape:cy="136.35374"
     inkscape:window-width="1920"
     inkscape:window-height="1057"
     inkscape:window-x="-8"
     inkscape:window-y="-8"
     inkscape:window-maximized="1"
     inkscape:current-layer="layer1" /><defs
     id="defs1"><filter
       inkscape:collect="always"
       style="color-interpolation-filters:sRGB"
       id="filter2"
       x="-0.17785742"
       y="-0.1778574"
       width="1.3557148"
       height="1.3557148"><feGaussianBlur
         inkscape:collect="always"
         stdDeviation="1.9561973"
         id="feGaussianBlur2" /></filter></defs><g
     inkscape:label="Layer 1"
     inkscape:groupmode="layer"
     id="layer1"><rect
       style="display:inline;fill:#d4af37;fill-opacity:1;stroke:#000000;stroke-width:0;stroke-linejoin:bevel;paint-order:stroke markers fill"
       id="rect3"
       width="14.344467"
       height="168.47908"
       x="-3.0216353"
       y="64.581139" /><rect
       style="display:inline;fill:#d4af37;fill-opacity:1;stroke:#000000;stroke-width:0;stroke-linejoin:bevel;paint-order:stroke markers fill"
       id="rect2"
       width="197.57321"
       height="34.708435"
       x="9.081768"
       y="131.14578" /><path
       id="path1"
       style="display:inline;fill:#0b1629;fill-opacity:1;stroke-width:1.4337"
       d="m 9.0817675,64.581138 v 61.467332 0.74703 21.70448 22.45151 61.17333 0.93524 H 212.86704 V 232.12482 169.91119 148.49998 126.7955 126.04847 64.581138 Z M 32.434807,132.64254 c 3.726351,0 7.453111,1.24185 10.538061,3.72636 4.858752,3.91303 6.974886,10.3949 5.324337,16.30536 -1.756665,6.29042 -7.223891,10.88895 -13.902266,11.69336 -8.051021,0.96976 -15.684988,-4.03906 -17.822531,-11.69336 -1.650548,-5.91046 0.466338,-12.39233 5.325088,-16.30536 3.084949,-2.48451 6.810959,-3.72636 10.537311,-3.72636 z m 0,1.34086 c -1.008447,0 -2.016582,0.0677 -2.748702,0.20425 -6.162976,1.14883 -10.89339,5.73507 -12.078326,11.71015 -0.281523,1.41959 -0.281523,3.91095 0,5.33057 0.903413,4.55548 3.890654,8.38361 8.128718,10.41598 1.771589,0.84957 3.323255,1.26561 5.654662,1.51592 0.739411,0.0794 2.723255,-0.0473 3.857811,-0.24583 6.016525,-1.05336 10.83359,-5.73954 12.012864,-11.68607 0.281524,-1.41962 0.281524,-3.91098 0,-5.33057 -1.184936,-5.97508 -5.914598,-10.56132 -12.077575,-11.71015 -0.732119,-0.13651 -1.741004,-0.20425 -2.749452,-0.20425 z m 148.533643,6.7312 0.50339,0.035 0.50413,0.0349 1.16554,2.84584 c 1.13961,2.78237 1.51163,3.41558 2.00905,3.41558 0.10356,0 0.18811,0.0853 0.18811,0.18967 0,0.15967 -0.28963,0.18967 -1.82621,0.18967 -1.47151,0 -1.82617,-0.0343 -1.82617,-0.1758 0,-0.10071 0.1952,-0.21141 0.45672,-0.259 0.53607,-0.0976 0.54772,-0.16914 0.17155,-1.04902 l -0.28515,-0.66679 h -1.20845 -1.20918 l -0.23026,0.70909 c -0.22401,0.6888 -0.22365,0.71428 0.0181,0.88562 0.13686,0.097 0.38437,0.17656 0.55004,0.17656 0.18079,0 0.30098,0.0758 0.30098,0.18967 0,0.16348 -0.44217,0.18967 -3.19641,0.18967 -2.75423,0 -3.19563,-0.0262 -3.19563,-0.18967 0,-0.12358 0.12719,-0.19041 0.36492,-0.19041 0.65323,0 0.6787,-0.10608 0.6787,-2.86406 0,-2.50256 -0.006,-2.5644 -0.29043,-2.75683 -0.15947,-0.10829 -0.3939,-0.19697 -0.52145,-0.19697 -0.12762,0 -0.23174,-0.0853 -0.23174,-0.18966 0,-0.15995 0.29707,-0.18969 1.89164,-0.18969 1.59456,0 1.89165,0.0299 1.89165,0.18969 0,0.10742 -0.11674,0.18966 -0.26937,0.18966 -0.14824,0 -0.38344,0.0585 -0.52222,0.13059 -0.23719,0.12305 -0.25203,0.29063 -0.25203,2.786 v 2.65471 l 0.33406,0.1232 c 0.18405,0.0679 0.47004,0.12317 0.63508,0.12317 0.65435,0 0.91659,-0.41131 2.17685,-3.41411 z m -37.5292,0.006 0.47704,7.4e-4 1.22047,2.97422 c 1.13218,2.75863 1.46258,3.34921 1.87438,3.34921 0.0559,0 0.1017,-0.45529 0.1017,-1.01184 0,-0.90829 0.0253,-1.01184 0.24681,-1.01184 0.14798,0 0.2766,0.11464 0.3213,0.28743 0.10119,0.3907 0.93863,1.32028 1.39578,1.54948 0.95347,0.47804 2.12418,0.0233 2.12418,-0.82507 0,-0.49797 -0.29792,-0.7698 -1.18736,-1.08478 -2.15764,-0.76412 -2.43622,-0.95998 -2.62831,-1.84059 -0.37097,-1.70051 1.60985,-2.87111 3.69377,-2.18269 0.45841,0.15148 0.65945,0.16822 0.76749,0.0634 0.0804,-0.0779 0.25159,-0.14151 0.38075,-0.14151 0.20876,0 0.23476,0.12604 0.23476,1.13802 0,0.99998 -0.0274,1.13845 -0.22797,1.13804 -0.14744,-3e-4 -0.31318,-0.20104 -0.46804,-0.56611 -0.35099,-0.82748 -0.99688,-1.33061 -1.70732,-1.33061 -0.64527,0 -1.06601,0.27135 -1.18585,0.76452 -0.13834,0.56939 0.31739,0.93958 1.70882,1.389 1.47663,0.47695 2.06317,0.94605 2.20543,1.7625 0.13204,0.75784 -0.33183,1.61264 -1.09559,2.01785 -0.78813,0.4181 -2.16249,0.48891 -3.11138,0.16048 -0.57037,-0.19736 -0.71,-0.20897 -0.83142,-0.0671 -0.19297,0.22537 -4.20815,0.25163 -4.13097,0.0269 0.027,-0.0787 0.2524,-0.20808 0.50038,-0.28741 0.50706,-0.16225 0.5175,-0.2617 0.12052,-1.15994 l -0.25132,-0.56901 -1.20167,0.0364 -1.2009,0.0363 -0.22273,0.62595 c -0.27296,0.76699 -0.21909,0.92599 0.34914,1.02931 0.25189,0.0458 0.44469,0.15641 0.44469,0.25608 0,0.13862 -0.28831,0.1758 -1.37021,0.1758 -1.13068,0 -1.37021,-0.0329 -1.37021,-0.18967 0,-0.10427 0.11117,-0.18967 0.24681,-0.18967 0.49774,0 0.81974,-0.47835 1.6599,-2.46649 1.80858,-4.27974 1.57676,-3.85845 2.11739,-3.85767 z m -27.25375,0.008 c 0.42852,-0.001 0.8538,0.0604 1.28444,0.18455 0.54301,0.15643 0.72116,0.16266 0.93076,0.0358 0.14258,-0.0865 0.29461,-0.12213 0.33786,-0.0803 0.0432,0.0419 0.11345,0.59482 0.15576,1.2285 0.0734,1.09962 0.065,1.15189 -0.18887,1.15189 -0.16902,0 -0.29371,-0.10671 -0.34161,-0.2918 -0.11422,-0.4408 -0.79861,-1.37073 -1.14598,-1.55752 -0.16908,-0.091 -0.58189,-0.16713 -0.91722,-0.16997 -1.22151,-0.007 -1.87325,1.0101 -1.86307,2.91295 0.0113,1.88211 0.65087,2.90127 1.82468,2.90127 0.31402,0 0.72257,-0.0675 0.90821,-0.14954 0.32269,-0.14256 0.33573,-0.1881 0.29948,-1.0432 l -0.0375,-0.89438 -0.4891,-0.11747 c -0.26908,-0.0645 -0.48909,-0.19246 -0.48909,-0.2845 0,-0.13059 0.38646,-0.16706 1.76074,-0.16706 1.34456,0 1.7615,0.0382 1.7615,0.16195 0,0.0891 -0.1733,0.22525 -0.38526,0.30275 -0.3732,0.1365 -0.38697,0.17033 -0.42439,1.07093 l -0.0385,0.93086 -0.91346,0.29691 c -1.17047,0.38101 -2.65032,0.46596 -3.50419,0.20062 -0.80965,-0.25163 -1.78931,-1.17864 -2.0113,-1.90331 -0.20459,-0.66797 -0.20427,-1.83491 7.7e-4,-2.50077 0.24524,-0.7962 1.29887,-1.77611 2.17909,-2.02659 0.44554,-0.12684 0.87774,-0.19119 1.30625,-0.19259 z m 39.58489,7.3e-4 c 0.41675,-0.023 0.85822,0.0393 1.36042,0.18382 0.54303,0.15643 0.72117,0.16266 0.93079,0.0358 0.14255,-0.0858 0.283,-0.13073 0.31227,-0.0986 0.0292,0.0322 0.0878,0.55703 0.13016,1.16575 0.0698,1.00483 0.056,1.10667 -0.155,1.10667 -0.15158,0 -0.34029,-0.22398 -0.54327,-0.64415 -0.42954,-0.88911 -0.90718,-1.25331 -1.64184,-1.25331 -0.44506,0 -0.65851,0.0737 -0.90296,0.31079 -0.61004,0.59144 -0.30419,1.25848 0.74869,1.63409 0.30921,0.11025 0.89574,0.31784 1.304,0.46178 1.05068,0.37042 1.54103,0.93786 1.54103,1.78366 0,0.35886 -0.0919,0.79049 -0.20844,0.98194 -0.25396,0.41676 -0.90476,0.86395 -1.49963,1.02932 -0.67386,0.18741 -1.67343,0.13978 -2.43493,-0.11526 -0.57088,-0.19127 -0.70987,-0.20108 -0.83144,-0.0592 -0.0802,0.0937 -0.25584,0.17072 -0.39053,0.17072 -0.22237,0 -0.2453,-0.11037 -0.2453,-1.20154 0,-1.44357 0.16294,-1.55197 0.76825,-0.51209 0.22074,0.37921 0.62171,0.83448 0.8909,1.01183 1.01916,0.67141 2.38528,0.2792 2.38528,-0.68429 0,-0.54439 -0.34004,-0.81138 -1.51695,-1.19203 -0.56493,-0.18271 -1.21465,-0.44298 -1.44397,-0.57849 -0.86617,-0.51212 -1.1404,-1.39093 -0.72156,-2.30891 0.21134,-0.46325 0.38632,-0.62958 0.95257,-0.90314 0.40262,-0.19451 0.79472,-0.3024 1.21144,-0.32537 z m -86.857559,0.006 c 0.373812,0.003 0.743667,0.0593 1.089547,0.17073 0.49974,0.16092 0.720794,0.18169 0.826944,0.0787 0.07965,-0.0771 0.25008,-0.14003 0.379235,-0.14003 0.209656,0 0.234762,0.12879 0.234762,1.20149 0,1.06164 -0.02628,1.20137 -0.227992,1.19714 -0.150748,-0.002 -0.34683,-0.2589 -0.577882,-0.75505 -0.416632,-0.89463 -0.936433,-1.2628 -1.783305,-1.26352 -0.468329,-3.8e-4 -0.642797,0.0726 -0.997749,0.41657 -0.542051,0.5255 -0.716167,1.13156 -0.717085,2.49637 -5.87e-4,0.86969 0.05632,1.18995 0.292703,1.6436 0.741283,1.42264 2.314663,1.52394 3.495132,0.22543 0.387436,-0.42613 0.487716,-0.47875 0.61776,-0.32683 0.308481,0.36037 -0.852544,1.48988 -1.791585,1.74281 v -7.3e-4 c -0.559588,0.15136 -1.617934,0.14517 -2.176083,-0.0122 -0.767898,-0.21576 -1.649147,-0.90247 -1.991736,-1.55241 -0.632821,-1.20058 -0.4628,-2.91593 0.38751,-3.91092 0.660533,-0.77345 1.818386,-1.22326 2.939824,-1.21173 z m 31.213889,0.005 c 0.48937,-0.0341 1.00133,0.0163 1.51317,0.1605 1.00097,0.28212 2.02525,1.23737 2.28143,2.12798 0.2255,0.78397 0.12002,2.03913 -0.22648,2.69774 -0.38602,0.7336 -1.19889,1.3942 -1.99926,1.62464 -1.867614,0.53771 -3.798572,-0.14407 -4.57265,-1.61515 -0.376091,-0.71472 -0.459349,-1.90674 -0.188861,-2.69629 0.458854,-1.33935 1.724543,-2.19747 3.192651,-2.29942 z m 23.9708,0 c 0.30179,0.0219 0.61026,0.0767 0.92176,0.16632 1.55531,0.44782 2.43465,1.58331 2.44921,3.16318 0.0134,1.49331 -0.61008,2.47467 -2.01281,3.16901 -0.28101,0.13904 -0.83276,0.24236 -1.43491,0.26918 -2.27653,0.10143 -3.84901,-1.28796 -3.82922,-3.38348 0.0197,-2.09439 1.79344,-3.53696 3.90597,-3.38421 z m 38.65261,0 c 0.48937,-0.0341 1.00054,0.0163 1.51242,0.1605 1.00098,0.28212 2.02601,1.23737 2.28217,2.12798 0.2255,0.78397 0.12004,2.03913 -0.22648,2.69774 -0.38601,0.7336 -1.19962,1.3942 -2.00001,1.62464 -1.8676,0.53771 -3.79778,-0.14407 -4.57191,-1.61515 -0.37605,-0.71472 -0.4601,-1.90674 -0.18959,-2.69629 0.45884,-1.33935 1.72529,-2.19747 3.1934,-2.29942 z m -29.36137,0.002 c 1.22653,0.1606 1.84955,1.40052 0.66669,2.43657 l -0.52597,0.46033 0.68473,0.78422 c 0.3766,0.43141 0.72817,0.83396 0.78029,0.89439 0.11951,0.13848 0.63732,-0.82901 0.63732,-1.19056 0,-0.18274 -0.12533,-0.31491 -0.39126,-0.41217 -0.21527,-0.0787 -0.39128,-0.2166 -0.39128,-0.3057 0,-0.12137 0.34373,-0.16194 1.37021,-0.16194 1.13068,0 1.36945,0.033 1.36945,0.18968 0,0.11576 -0.1214,0.18968 -0.31151,0.18968 -0.44266,0 -0.79413,0.32325 -1.37473,1.26279 l -0.5064,0.81924 0.25057,0.34141 c 0.32673,0.44488 1.03075,0.8607 1.611,0.95202 0.26754,0.0421 0.46199,0.14561 0.46199,0.24584 0,0.13596 -0.30461,0.17363 -1.41309,0.17363 -1.32262,0 -1.43074,-0.0197 -1.70655,-0.30421 l -0.29422,-0.30348 -0.72008,0.36693 c -2.61854,1.33546 -4.83592,-1.39723 -2.38376,-2.93774 l 0.62904,-0.39467 -0.31453,-0.46104 c -0.68899,-1.00941 -0.50058,-1.93414 0.48908,-2.39863 0.49855,-0.23398 0.97421,-0.30012 1.38301,-0.24659 z m 37.70075,0.003 c 0.30805,0.0243 0.62481,0.0811 0.94659,0.17362 0.48928,0.14088 0.71835,0.16044 0.75172,0.0634 0.0264,-0.0767 0.16049,-0.13933 0.29795,-0.13933 0.22331,0 0.25063,0.0981 0.25209,0.91699 0.001,0.50435 0.0372,1.04498 0.0804,1.20151 0.0621,0.22503 0.0244,0.28451 -0.17985,0.28451 -0.18298,0 -0.32177,-0.15701 -0.47554,-0.53764 -0.40911,-1.01281 -1.02227,-1.48602 -1.92476,-1.48602 -0.5074,0 -0.6808,0.0655 -1.00453,0.37935 -0.54812,0.53144 -0.7313,1.14982 -0.72988,2.46646 0.001,1.76302 0.55986,2.65598 1.75621,2.81154 0.71532,0.0931 1.34318,-0.15959 1.93081,-0.77764 0.53318,-0.56078 0.91659,-0.60858 0.74792,-0.0933 -0.13016,0.39783 -1.16252,1.22047 -1.74266,1.38899 -0.28165,0.0817 -0.7993,0.14429 -1.14976,0.14003 -2.08438,-0.0288 -3.43944,-1.34626 -3.43944,-3.34335 0,-2.17648 1.72647,-3.61891 3.88262,-3.44914 z m 29.80833,0.003 c 0.47682,-0.0282 0.97965,0.0217 1.39503,0.15538 0.49986,0.16094 0.7208,0.1817 0.82695,0.0787 0.0795,-0.0771 0.25083,-0.14005 0.37997,-0.14005 0.20878,0 0.23477,0.12606 0.23477,1.13804 0,1.3543 -0.19779,1.50005 -0.70881,0.52233 -0.45993,-0.87997 -0.99722,-1.28101 -1.71483,-1.28101 -0.70643,0 -1.09933,0.32366 -1.09933,0.90677 0,0.5915 0.2883,0.80956 1.65089,1.24966 1.4119,0.45604 1.93601,0.82424 2.14749,1.50863 0.29629,0.95879 -0.11156,1.81026 -1.1031,2.30308 -0.77404,0.38466 -2.15798,0.43868 -3.0474,0.11807 -0.57972,-0.20884 -0.70117,-0.21855 -0.83148,-0.0663 -0.25307,0.29565 -0.51215,0.20971 -0.51316,-0.16997 -5.8e-4,-0.19131 -0.0386,-0.73192 -0.0843,-1.20151 -0.0778,-0.79929 -0.066,-0.85353 0.18134,-0.85353 0.1739,0 0.32271,0.13791 0.43642,0.40415 0.2234,0.52289 0.84287,1.20372 1.30701,1.43641 0.62888,0.31528 1.38553,0.23758 1.82319,-0.18675 0.76118,-0.73796 0.35953,-1.34755 -1.21822,-1.84931 -1.37291,-0.43665 -1.84401,-0.71652 -2.1046,-1.24895 -0.45841,-0.9366 -0.12179,-1.99031 0.80286,-2.51389 0.31176,-0.17652 0.76248,-0.282 1.23929,-0.31003 z m -127.170833,0.0942 c 1.594558,0 1.891657,0.0298 1.891657,0.18967 0,0.10742 -0.116789,0.18967 -0.269374,0.18967 -0.148231,0 -0.38341,0.0586 -0.522203,0.13059 -0.223579,0.11599 -0.252069,0.2752 -0.252069,1.39191 0,0.69321 0.03284,1.25987 0.07298,1.25987 0.341766,0 2.588319,-2.31508 2.498887,-2.5752 -0.02586,-0.0752 -0.185657,-0.16848 -0.354404,-0.20717 -0.168748,-0.0387 -0.330433,-0.13976 -0.359673,-0.22469 -0.03984,-0.11587 0.325454,-0.15465 1.458249,-0.15465 1.148554,0 1.510918,0.0391 1.510918,0.16339 0,0.0899 -0.274599,0.23477 -0.610236,0.32174 -0.480351,0.12449 -0.828093,0.36565 -1.63432,1.13292 l -1.024083,0.97463 1.364944,1.65892 c 1.086034,1.31962 1.473811,1.70106 1.895421,1.86463 0.866431,0.33612 0.645329,0.46106 -0.817162,0.46106 H 77.22965 l -1.164042,-1.51739 c -0.640464,-0.83459 -1.238378,-1.51791 -1.328072,-1.51814 -0.182097,-4.2e-4 -0.236808,2.09457 -0.06169,2.36145 0.05343,0.0815 0.257869,0.18704 0.454479,0.2349 0.196608,0.0479 0.357414,0.16652 0.357414,0.26338 0,0.14199 -0.354107,0.1758 -1.836731,0.1758 -1.41156,0 -1.825324,-0.0369 -1.784061,-0.15831 0.02954,-0.087 0.195686,-0.17808 0.369456,-0.20209 0.63045,-0.0872 0.642591,-0.14031 0.642591,-2.93045 V 141.502 l -0.522199,-0.20208 c -0.923687,-0.35836 -0.62647,-0.45739 1.370211,-0.45739 z m 17.416961,0 c 1.614176,0 1.957124,0.0319 1.957124,0.18164 0,0.11256 -0.161744,0.19648 -0.424387,0.22103 -0.308568,0.0288 -0.419274,0.1 -0.406326,0.25971 0.02534,0.3129 1.369529,2.63079 1.485336,2.56132 0.053,-0.0319 0.433862,-0.59859 0.846514,-1.25985 0.789427,-1.265 0.814747,-1.51514 0.162527,-1.6086 -0.150615,-0.0217 -0.297771,-0.1106 -0.327311,-0.19768 -0.04056,-0.11944 0.267777,-0.15757 1.261853,-0.15757 0.991952,0 1.315285,0.0403 1.315285,0.16413 0,0.0902 -0.206932,0.23671 -0.459756,0.32538 -0.378285,0.13269 -0.642238,0.43058 -1.491353,1.68297 -0.944933,1.39374 -1.03943,1.59168 -1.123405,2.35195 -0.117052,1.05975 0.0184,1.44051 0.565097,1.59252 0.23233,0.0647 0.422116,0.19461 0.422116,0.28889 0,0.13639 -0.386835,0.17145 -1.891652,0.17145 -1.594564,0 -1.891662,-0.0299 -1.891662,-0.18968 0,-0.12358 0.127201,-0.18968 0.364937,-0.18968 0.569714,0 0.678712,-0.20626 0.678712,-1.28613 v -0.98265 l -0.927773,-1.52164 c -0.932368,-1.53157 -1.37935,-2.02584 -1.829959,-2.02584 -0.133845,0 -0.24304,-0.0853 -0.24304,-0.18967 0,-0.16023 0.30458,-0.18968 1.957123,-0.18968 z m 14.465832,0 h 1.28896 l 1.80966,2.17175 1.80887,2.17103 0.0369,-1.52104 c 0.0429,-1.79443 -0.0493,-2.10833 -0.68171,-2.33007 -0.25526,-0.0894 -0.46352,-0.2372 -0.46352,-0.32754 0,-0.12476 0.34487,-0.16413 1.43492,-0.16413 1.18867,0 1.43492,0.0325 1.43492,0.18967 0,0.10426 -0.11054,0.18967 -0.24604,0.18967 -0.13557,0 -0.38517,0.10926 -0.55456,0.24219 -0.30457,0.23903 -0.30895,0.27264 -0.35364,3.09825 l -0.0452,2.85751 -0.41159,-0.006 c -0.37483,-0.005 -0.59118,-0.22315 -2.43344,-2.44315 l -2.02181,-2.43657 -0.036,1.9551 c -0.0397,2.1564 0.0135,2.33168 0.76676,2.49201 0.20782,0.0443 0.37849,0.1609 0.37849,0.25972 l -7.6e-4,7.2e-4 c 0,0.14482 -0.29102,0.17946 -1.50038,0.17946 -1.24666,0 -1.5004,-0.0321 -1.5004,-0.18967 0,-0.10692 0.117,-0.18968 0.26714,-0.18968 0.14677,0 0.41077,-0.14003 0.58689,-0.31077 0.31586,-0.30615 0.32055,-0.34149 0.32055,-2.53944 v -2.22866 l -0.38148,-0.36986 c -0.20974,-0.20334 -0.47378,-0.36987 -0.58692,-0.36987 -0.11307,0 -0.20618,-0.0853 -0.20618,-0.18966 0,-0.15585 0.23067,-0.18968 1.28971,-0.18968 z m 79.3376,0 h 3.26188 3.26186 v 0.94836 c 0,0.72181 -0.043,0.94838 -0.17984,0.94838 -0.0988,0 -0.24744,-0.15656 -0.32957,-0.34873 -0.28098,-0.65764 -0.69988,-1.01819 -1.28745,-1.1074 l -0.5568,-0.0846 0.0354,2.81448 0.0347,2.81517 0.4492,0.14591 c 0.24681,0.0805 0.47138,0.21403 0.49963,0.29618 0.0381,0.11037 -0.46358,0.14956 -1.92702,0.14956 -1.52464,0 -1.96614,-0.0363 -1.92477,-0.15831 0.0296,-0.087 0.19567,-0.17808 0.36944,-0.20209 0.63338,-0.0877 0.64184,-0.12969 0.64184,-3.08146 v -2.7787 l -0.55455,0.0846 c -0.58488,0.0887 -1.00389,0.45008 -1.28442,1.10666 -0.0821,0.19217 -0.23071,0.34873 -0.32958,0.34873 -0.13686,0 -0.17985,-0.22657 -0.17985,-0.94838 z m 9.71941,0 h 3.06622 v 0.82215 c 0,0.72828 -0.0286,0.82218 -0.25206,0.82218 -0.13863,0 -0.28584,-0.10362 -0.32733,-0.23054 -0.0416,-0.12685 -0.24904,-0.39156 -0.46049,-0.58799 -0.33469,-0.31079 -0.5116,-0.36554 -1.36796,-0.41874 l -0.98421,-0.0613 v 1.28174 1.28176 h 0.5305 c 0.69908,0 1.0174,-0.18087 1.24379,-0.70616 0.10253,-0.23788 0.27324,-0.4326 0.38,-0.4326 0.15928,0 0.19411,0.23755 0.19411,1.32843 0,1.0909 -0.0348,1.32771 -0.19411,1.32771 -0.10677,0 -0.27609,-0.19122 -0.377,-0.42529 -0.19489,-0.45223 -0.70898,-0.71273 -1.40558,-0.71273 h -0.37171 v 1.24892 c 0,1.5254 0.0612,1.60155 1.29272,1.58742 1.07048,-0.0122 1.28422,-0.12294 1.7735,-0.92503 0.21529,-0.35282 0.46412,-0.64277 0.55381,-0.64415 0.17881,-0.002 0.21737,0.74043 0.0797,1.5473 l -0.0812,0.47419 h -3.17909 c -2.73907,0 -3.17911,-0.0262 -3.17911,-0.18968 0,-0.10743 0.11674,-0.18966 0.26939,-0.18966 0.14823,0 0.38344,-0.0593 0.5222,-0.13131 0.23692,-0.12292 0.25206,-0.28965 0.25206,-2.71231 0,-2.52414 -0.005,-2.58547 -0.28968,-2.778 -0.15947,-0.10828 -0.39467,-0.19696 -0.52223,-0.19696 -0.12759,0 -0.23174,-0.0854 -0.23174,-0.18968 0,-0.16334 0.42722,-0.18966 3.0655,-0.18966 z m -112.349083,0.0175 c 0.349574,-0.0201 0.961131,-0.0154 2.009042,0.003 2.136145,0.0402 2.521205,0.0797 3.033879,0.30859 1.418285,0.6332 2.003605,1.49381 2.012051,2.95817 0.0043,0.74185 -0.05732,1.06281 -0.282169,1.47362 -0.355319,0.64916 -1.070153,1.23414 -1.853285,1.51592 -0.450548,0.16214 -1.170425,0.22695 -2.975186,0.26847 -2.116281,0.0486 -2.381505,0.0321 -2.381505,-0.14736 0,-0.13664 0.118242,-0.20134 0.365691,-0.20134 0.651578,0 0.677957,-0.11073 0.677957,-2.79767 0,-1.37176 -0.03471,-2.58306 -0.07751,-2.69119 -0.04282,-0.10817 -0.277981,-0.23276 -0.522199,-0.27723 -0.267908,-0.0487 -0.443945,-0.15539 -0.443945,-0.26845 0,-0.0804 0.0876,-0.12568 0.437173,-0.1459 z m 18.131033,0.36186 c -0.493514,0 -0.660597,0.0685 -1.020322,0.41728 -0.541859,0.52532 -0.716319,1.13262 -0.716319,2.492 0,1.32386 0.156873,1.90225 0.671184,2.47016 0.350678,0.38729 0.47278,0.43915 1.027077,0.43915 0.51906,0 0.69394,-0.0635 1.00453,-0.36475 0.50968,-0.49415 0.68776,-1.15248 0.68776,-2.54456 0,-1.39207 -0.17808,-2.05038 -0.68776,-2.54454 -0.30376,-0.29445 -0.48971,-0.36474 -0.96615,-0.36474 z m 23.40722,0 c -1.1873,0 -1.72688,0.90884 -1.72688,2.90928 0,1.36958 0.26527,2.239 0.81039,2.65471 0.22181,0.1692 0.53006,0.2546 0.92026,0.2546 0.50082,0 0.64972,-0.0644 1.01505,-0.43989 0.48473,-0.49829 0.71182,-1.2861 0.71182,-2.46942 0,-1.88401 -0.60987,-2.90928 -1.73064,-2.90928 z m 9.42745,0 c -0.44082,0 -0.65239,0.21593 -0.65239,0.66603 0,0.38992 0.17052,0.77659 0.50417,1.14682 0.20092,0.22294 0.22012,0.2188 0.50486,-0.10216 0.20733,-0.2336 0.29571,-0.49455 0.29571,-0.87029 0,-0.61792 -0.17274,-0.84041 -0.65235,-0.84041 z m 29.78799,0 c -0.49354,0 -0.65984,0.0685 -1.01957,0.41728 -0.54187,0.52532 -0.71709,1.13262 -0.71709,2.492 0,1.32386 0.15763,1.90225 0.67193,2.47016 0.35069,0.38729 0.47204,0.43915 1.02635,0.43915 0.51905,0 0.69469,-0.0635 1.00529,-0.36475 0.50969,-0.49415 0.68696,-1.15248 0.68696,-2.54456 0,-1.39207 -0.17727,-2.05038 -0.68696,-2.54454 -0.30376,-0.29445 -0.49049,-0.36474 -0.96691,-0.36474 z m -78.385731,0.0634 v 2.71527 2.71596 l 0.326563,0.16415 c 0.674312,0.33988 1.660683,-0.0565 2.152006,-0.8652 0.216241,-0.35593 0.261099,-0.6575 0.261099,-1.75814 0,-1.18228 -0.03548,-1.38994 -0.32581,-1.89089 -0.401383,-0.6925 -0.978751,-1.03376 -1.793088,-1.06072 z m 96.120211,1.13806 -0.15877,0.37934 c -0.0872,0.20869 -0.29731,0.73533 -0.46725,1.17013 l -0.30852,0.79081 h 0.97067 0.97065 l -0.26936,-0.66461 c -0.14803,-0.36522 -0.37452,-0.89112 -0.50339,-1.1694 z m -37.99494,0.0634 c -0.0697,4.4e-4 -0.91649,2.01893 -0.91649,2.18488 0,0.0504 0.41705,0.0919 0.927,0.0919 0.68717,0 0.91182,-0.041 0.86683,-0.15832 -0.0334,-0.087 -0.22914,-0.59887 -0.43492,-1.13803 -0.20577,-0.53914 -0.40485,-0.98071 -0.44242,-0.98048 z m -114.041337,1.32039 c 0.506889,0.0403 1.021977,0.14141 1.537254,0.31004 0.652099,0.21343 0.779627,0.22195 1.009789,0.0657 0.420603,-0.28565 0.768591,-0.23263 0.695262,0.10577 -0.0339,0.15652 -0.19581,0.92749 -0.360421,1.71361 -0.269398,1.28647 -0.325737,1.42607 -0.563585,1.39191 -0.206309,-0.0296 -0.296707,-0.19073 -0.411592,-0.7339 -0.301696,-1.42642 -1.019829,-2.15382 -2.221983,-2.25052 -1.762738,-0.14172 -3.046941,1.32133 -3.528992,4.02107 -0.477853,2.67623 0.357393,4.17983 2.318298,4.17135 0.919179,-0.003 1.643415,-0.34134 2.569619,-1.19787 0.520651,-0.48147 0.826433,-0.67676 0.972916,-0.62228 0.117483,0.0437 0.213696,0.11881 0.213696,0.16706 0,0.0483 -0.297108,0.41075 -0.659898,0.80539 -0.467857,0.50892 -0.934964,0.84948 -1.607233,1.17162 -1.102224,0.52805 -2.42189,0.6754 -3.538774,0.39538 -1.878857,-0.47107 -2.809433,-1.57526 -2.911228,-3.4557 -0.196189,-3.62395 2.938646,-6.34013 6.486872,-6.05862 z m 7.3868,0.1977 c 2.452319,0 2.514206,0.005 2.447722,0.25241 -0.03829,0.14188 -0.177357,0.25316 -0.317534,0.25316 -0.137441,0 -0.450222,0.0812 -0.694512,0.18017 -0.493475,0.19992 -0.512383,0.24473 -1.035371,2.44462 -0.27709,1.1655 -0.286714,1.29634 -0.09407,1.29634 0.257859,0 2.82601,-1.99179 3.720113,-2.88522 0.684706,-0.68422 0.735046,-1.03591 0.148985,-1.03591 -0.243282,0 -0.330326,-0.0668 -0.330326,-0.25316 0,-0.23886 0.08748,-0.25241 1.631314,-0.25241 1.614548,0 1.630557,0.002 1.630557,0.29035 0,0.22179 -0.115967,0.33128 -0.489093,0.45961 -0.269082,0.0926 -0.750951,0.3372 -1.070736,0.5442 -0.779385,0.50451 -3.136965,2.40262 -3.136965,2.52559 0,0.23719 2.663261,4.29735 2.974436,4.53465 0.190311,0.14514 0.511665,0.29619 0.714827,0.33557 0.252919,0.049 0.346783,0.12932 0.29722,0.2546 -0.03981,0.1005 -0.07223,0.20655 -0.07223,0.23563 0,0.0292 -0.778373,0.0523 -1.72913,0.0511 l -1.728378,-0.002 -0.294959,-0.66239 c -0.162461,-0.36417 -0.692218,-1.31644 -1.176833,-2.11631 -1.218903,-2.01193 -1.308243,-2.00845 -1.793088,0.0677 -0.415831,1.78074 -0.390325,1.94115 0.343117,2.1353 0.554288,0.14674 0.529594,0.12515 0.431906,0.37205 v 7.4e-4 c -0.07229,0.18269 -0.380983,0.20791 -2.547044,0.20791 -2.319977,0 -2.465025,-0.0141 -2.465025,-0.23636 0,-0.18146 0.125582,-0.25233 0.541012,-0.3064 0.297548,-0.0387 0.65069,-0.17636 0.784051,-0.30567 0.168147,-0.16302 0.481093,-1.24232 1.021826,-3.5199 0.428886,-1.80647 0.781286,-3.43413 0.78255,-3.61692 0.0028,-0.3939 -0.205427,-0.58699 -0.744926,-0.69159 -0.308354,-0.0597 -0.38153,-0.12946 -0.331076,-0.31661 0.06082,-0.22552 0.219372,-0.24001 2.581655,-0.24001 z m 95.974997,0.29911 c -0.14545,-0.047 -0.27875,0.12815 -0.41911,0.54056 -0.28086,0.82506 0.15554,1.64226 0.98947,1.85153 0.31069,0.0779 0.99491,-0.0221 1.15652,-0.16925 0.068,-0.0619 -0.20833,-0.48896 -0.65238,-1.00894 -0.42353,-0.4959 -0.83987,-0.9878 -0.92476,-1.09353 -0.0519,-0.0645 -0.10119,-0.1049 -0.14974,-0.1204 z m -34.571321,8.93362 c 0.65384,0 1.066658,0.23426 1.350665,0.76671 0.189468,0.35526 0.185986,0.37134 -0.07978,0.37134 -0.152961,0 -0.393886,-0.14197 -0.534993,-0.3159 -0.329723,-0.40643 -1.151512,-0.4418 -1.538766,-0.0663 -0.517032,0.5013 -0.509803,1.56744 0.01421,2.1083 0.408707,0.42186 1.174939,0.41256 1.524475,-0.0183 0.141106,-0.17391 0.38202,-0.31588 0.534982,-0.31588 0.265761,0 0.269232,0.016 0.07978,0.37133 -0.109087,0.20448 -0.329207,0.46119 -0.48909,0.56977 -0.162075,0.10998 -0.559211,0.19695 -0.896925,0.19695 -1.02223,0 -1.683982,-0.72312 -1.683982,-1.83984 0,-1.15471 0.632939,-1.82816 1.719352,-1.82816 z m 2.716361,0 h 0.3258 0.32657 v 1.834 1.834 h -0.32657 -0.3258 v -1.834 z m 3.26113,0 c 1.34816,0 1.43565,0.0156 1.43565,0.25313 0,0.21558 -0.0876,0.25315 -0.58767,0.25315 h -0.58688 v 1.58084 c 0,1.49681 -0.0145,1.58088 -0.2611,1.58088 -0.24696,0 -0.26037,-0.0842 -0.26037,-1.58088 v -1.58084 h -0.58766 c -0.5001,0 -0.58689,-0.0377 -0.58689,-0.25315 0,-0.23757 0.0866,-0.25313 1.43492,-0.25313 z m 2.60948,0 h 0.32659 0.32577 v 1.834 1.834 h -0.32577 -0.32659 v -1.834 z m 2.21821,0 c 0.24274,0 0.26034,0.0847 0.26034,1.21026 0,1.61622 0.18148,1.94576 1.06925,1.94999 0.74447,0.002 0.88789,-0.29783 0.88789,-1.86027 0,-1.21567 0.0171,-1.29998 0.2611,-1.29998 0.24594,0 0.2611,0.084 0.2611,1.46413 0,1.44984 -0.003,1.46792 -0.38149,1.83399 -0.31818,0.30849 -0.48587,0.36972 -1.01129,0.36548 -1.3102,-0.011 -1.59766,-0.42152 -1.60347,-2.30378 -0.003,-1.27688 0.0127,-1.35982 0.25657,-1.35982 z m 5.4327,0 c 0.73337,0 0.93365,0.0903 1.1648,0.52379 0.17703,0.33193 0.17549,0.37405 -0.0209,0.44719 -0.13644,0.0508 -0.29585,-0.0157 -0.4289,-0.17874 -0.47263,-0.57899 -1.50327,-0.44686 -1.4274,0.18312 0.0357,0.298 0.15202,0.37971 0.8849,0.62374 0.46375,0.15441 0.91897,0.38096 1.01127,0.50336 0.26868,0.35624 0.20076,0.91276 -0.15274,1.25548 -0.26362,0.25556 -0.44918,0.31006 -1.04967,0.31006 -0.60048,0 -0.78604,-0.0545 -1.04966,-0.31006 -0.17609,-0.17074 -0.3198,-0.39872 -0.3198,-0.50628 0,-0.2735 0.42754,-0.24437 0.61175,0.0415 0.36199,0.56199 1.54099,0.38166 1.54099,-0.23563 0,-0.27039 -0.12065,-0.35379 -0.91344,-0.63394 -0.67933,-0.24 -0.95507,-0.40735 -1.07753,-0.65512 -0.33894,-0.68565 0.27304,-1.36856 1.22649,-1.36856 z m 7.98801,0 c 0.36293,0 0.39313,0.0526 1.01055,1.73332 0.35022,0.95339 0.65708,1.77867 0.68096,1.83401 0.0239,0.0553 -0.0991,0.10071 -0.27315,0.10071 -0.25608,0 -0.34601,-0.0959 -0.47252,-0.50557 l -0.15653,-0.50626 h -0.77275 -0.77201 l -0.1565,0.50626 c -0.12709,0.41122 -0.21589,0.50557 -0.47556,0.50557 -0.25162,0 -0.30057,-0.0468 -0.2295,-0.22104 0.13991,-0.34301 1.24227,-3.36941 1.24227,-3.41047 0,-0.02 0.16886,-0.0364 0.37474,-0.0364 z m 2.75699,0 h 0.32579 0.32581 v 1.58159 1.58083 h 0.84801 c 0.76111,0 0.84801,0.0261 0.84801,0.25316 0,0.23418 -0.0865,0.25242 -1.1738,0.25242 h -1.17382 v -1.834 z m 4.30475,0 c 1.34818,0 1.43568,0.0156 1.43568,0.25313 0,0.21558 -0.0876,0.25315 -0.58766,0.25315 h -0.58691 v 1.58084 c 0,1.49681 -0.0145,1.58088 -0.26111,1.58088 -0.24635,0 -0.26109,-0.0842 -0.26109,-1.58088 v -1.58084 h -0.58691 c -0.50016,0 -0.58692,-0.0377 -0.58692,-0.25315 0,-0.23757 0.0868,-0.25313 1.43492,-0.25313 z m 2.60949,0 h 0.32582 0.32658 v 1.834 1.834 h -0.32658 -0.32582 v -1.834 z m 2.21823,0 c 0.24273,0 0.26033,0.0847 0.26033,1.21026 0,1.61622 0.1815,1.94576 1.06925,1.94999 0.74445,0.002 0.88788,-0.29783 0.88788,-1.86027 0,-1.21567 0.017,-1.29998 0.26112,-1.29998 0.24592,0 0.26109,0.084 0.26109,1.46413 0,1.44984 -0.003,1.46866 -0.3815,1.83472 -0.31818,0.3085 -0.48584,0.36899 -1.01127,0.36475 -1.31021,-0.011 -1.59766,-0.42152 -1.60349,-2.30378 -0.003,-1.27688 0.0126,-1.35982 0.25659,-1.35982 z m 5.43193,0 c 0.73338,0 0.9344,0.0903 1.16555,0.52379 0.17704,0.33193 0.17477,0.37405 -0.0219,0.44719 -0.13643,0.0508 -0.29503,-0.0157 -0.42814,-0.17874 -0.47262,-0.57899 -1.50326,-0.44686 -1.4274,0.18312 0.0358,0.298 0.15201,0.37971 0.88489,0.62374 0.46377,0.15441 0.91822,0.38096 1.01054,0.50336 0.26868,0.35624 0.20151,0.91276 -0.15201,1.25548 -0.26359,0.25556 -0.44917,0.31006 -1.04966,0.31006 -0.60049,0 -0.78604,-0.0545 -1.04965,-0.31006 -0.17608,-0.17074 -0.31981,-0.39872 -0.31981,-0.50628 0,-0.2735 0.42753,-0.24437 0.61175,0.0415 0.36199,0.56199 1.54027,0.38166 1.54027,-0.23563 0,-0.27039 -0.11977,-0.35306 -0.91272,-0.63322 -0.67933,-0.24001 -0.95506,-0.40807 -1.07752,-0.65584 -0.33895,-0.68565 0.2723,-1.36856 1.22575,-1.36856 z m 6.57041,0 h 1.17458 c 1.08725,0 1.17382,0.0189 1.17382,0.25313 0,0.22885 -0.0873,0.25315 -0.91349,0.25315 h -0.91273 v 0.56901 0.56903 h 0.84804 c 0.76109,0 0.84799,0.0261 0.84799,0.25314 0,0.22701 -0.087,0.25314 -0.84799,0.25314 h -0.84804 v 0.75869 c 0,0.67464 -0.0291,0.75944 -0.2611,0.75944 -0.24927,0 -0.26108,-0.085 -0.26108,-1.83473 z m 8.08883,0 h 0.97142 c 0.83638,0 1.0214,0.042 1.33408,0.30274 0.47889,0.39941 0.50901,1.17699 0.0632,1.63705 l -0.30023,0.31002 0.33561,0.64198 c 0.40302,0.77121 0.40388,0.77694 0.0759,0.77694 -0.17884,0 -0.38636,-0.21705 -0.66516,-0.69596 -0.34545,-0.59348 -0.46005,-0.69596 -0.78329,-0.69596 -0.37167,0 -0.37924,0.013 -0.37924,0.69596 0,0.65769 -0.0174,0.69596 -0.32582,0.69596 h -0.32654 v -1.834 z m 5.21825,0 c 1.34817,0 1.43566,0.0156 1.43566,0.25313 0,0.21558 -0.0876,0.25315 -0.58765,0.25315 h -0.58691 v 1.58084 c 0,1.49681 -0.0145,1.58161 -0.2611,1.58161 -0.24636,0 -0.26036,-0.0849 -0.26036,-1.58161 v -1.58084 h -0.58767 c -0.50015,0 -0.58689,-0.0377 -0.58689,-0.25315 0,-0.23757 0.0867,-0.25313 1.43492,-0.25313 z m 2.60949,0 h 0.32656 0.32581 v 1.83473 1.834 h -0.32581 -0.32656 v -1.834 z m 2.21823,0 c 0.24274,0 0.26034,0.0847 0.26034,1.21026 0,1.61622 0.18147,1.94576 1.06924,1.94999 0.74445,0.002 0.88787,-0.29783 0.88787,-1.86027 0,-1.21567 0.0171,-1.29998 0.26112,-1.29998 0.24592,0 0.26109,0.0849 0.26109,1.46484 0,1.44984 0.0345,1.48257 -0.34313,1.8486 -0.31817,0.30855 -0.52423,0.3544 -1.04966,0.35016 -1.31018,-0.011 -1.59764,-0.42152 -1.60347,-2.30378 -0.003,-1.27688 0.0126,-1.35982 0.2566,-1.35982 z m 5.43269,0 c 0.73332,0 0.93363,0.0903 1.16479,0.52379 0.17705,0.33193 0.1755,0.37405 -0.0211,0.44719 -0.13642,0.0508 -0.2958,-0.0157 -0.4289,-0.17874 -0.47263,-0.57899 -1.50325,-0.44613 -1.4274,0.18385 0.0357,0.29803 0.15201,0.37898 0.88488,0.62301 0.46377,0.15441 0.91901,0.38096 1.01131,0.50336 0.26867,0.35624 0.20075,0.91276 -0.15276,1.25548 -0.26363,0.25556 -0.44918,0.31079 -1.04964,0.31079 -0.60051,0 -0.78604,-0.0551 -1.04968,-0.31079 -0.17607,-0.17074 -0.31981,-0.39797 -0.31981,-0.50554 2e-5,-0.2735 0.42753,-0.24511 0.61175,0.0408 0.36198,0.56197 1.54102,0.3824 1.54102,-0.23492 0,-0.27036 -0.12064,-0.3538 -0.91347,-0.63394 -0.67933,-0.24001 -0.95504,-0.40807 -1.07751,-0.65583 -0.33897,-0.68566 0.27304,-1.36857 1.2265,-1.36857 z m -18.31915,0.011 c 0.34766,0.006 0.68677,0.073 0.86832,0.19623 0.37277,0.25314 0.79233,1.11461 0.79233,1.62755 0,0.59361 -0.4463,1.4134 -0.8909,1.6363 v -7.4e-4 c -0.48707,0.24467 -1.27319,0.24858 -1.72839,0.007 -0.46916,-0.2472 -0.76702,-0.91955 -0.76597,-1.72676 9.1e-4,-0.74068 0.28681,-1.30046 0.80661,-1.58012 0.21455,-0.1155 0.5703,-0.16811 0.918,-0.16122 z m 0.0369,0.49606 c -0.6161,0 -0.83131,0.10555 -1.04967,0.51502 -0.34776,0.65199 -0.1357,1.86298 0.36041,2.05651 0.44142,0.1722 1.03902,0.0715 1.34616,-0.22615 0.26112,-0.25312 0.32054,-0.43636 0.32054,-0.99433 0,-0.88206 -0.33937,-1.35105 -0.97744,-1.35105 z m 3.45599,0 v 0.63249 0.63249 h 0.5606 c 0.64437,0 0.87433,-0.16627 0.87433,-0.63249 0,-0.46623 -0.22996,-0.63249 -0.87433,-0.63249 z m -32.61945,0.12619 c -0.085,0 -0.51844,1.25197 -0.51844,1.4977 0,0.0878 0.21624,0.14663 0.53724,0.14663 0.44972,0 0.52624,-0.0358 0.47104,-0.22104 -0.0363,-0.12164 -0.14313,-0.49171 -0.23778,-0.82216 -0.0947,-0.33046 -0.20823,-0.60113 -0.25206,-0.60113 z m -5.05195,2.42636 c 0.19261,0.0266 0.29344,0.12723 0.29344,0.29326 0,0.16606 -0.10067,0.26673 -0.29344,0.29327 -0.24083,0.0332 -0.29345,-0.0194 -0.29345,-0.29327 0,-0.27377 0.0527,-0.32644 0.29345,-0.29326 z m 25.31015,0 c 0.19266,0.0266 0.29346,0.12723 0.29346,0.29326 0,0.16606 -0.10067,0.26673 -0.29346,0.29327 -0.24082,0.0332 -0.29419,-0.0194 -0.29419,-0.29327 0,-0.27377 0.0533,-0.32644 0.29419,-0.29326 z m 30.13713,0 c 0.19263,0.0266 0.29346,0.12723 0.29346,0.29326 0,0.16606 -0.10077,0.26673 -0.29346,0.29327 -0.24083,0.0332 -0.29345,-0.0194 -0.29345,-0.29327 0,-0.27377 0.0527,-0.32644 0.29345,-0.29326 z" /><path
       id="circle2"
       style="fill:#d4af37;fill-opacity:1;stroke:#000000;stroke-width:0;stroke-linejoin:bevel;paint-order:stroke markers fill;filter:url(#filter2)"
       d="m 51.012386,135.85989 a 13.198316,13.198316 0 0 0 -13.198677,13.19816 13.198316,13.198316 0 0 0 13.198677,13.19868 13.198316,13.198316 0 0 0 13.198161,-13.19868 13.198316,13.198316 0 0 0 -13.198161,-13.19816 z m 0,1.87947 a 11.318836,11.318836 0 0 1 11.318689,11.31869 11.318836,11.318836 0 0 1 -11.318689,11.3192 11.318836,11.318836 0 0 1 -11.319205,-11.3192 11.318836,11.318836 0 0 1 11.319205,-11.31869 z"
       transform="matrix(1.4116945,0,0,1.4116945,-40.359538,-61.136623)" /></g></svg>
