<?xml version="1.0" encoding="UTF-8" standalone="no"?>
<!-- Created with Inkscape (http://www.inkscape.org/) -->

<svg
   width="210mm"
   height="297mm"
   viewBox="0 0 210 297"
   version="1.1"
   id="svg1"
   xml:space="preserve"
   inkscape:version="1.3.2 (091e20e, 2023-11-25, custom)"
   sodipodi:docname="ls-bakery-logo-designed-by-reserved-designs.svg"
   inkscape:export-filename="ls-bakery-logo-designed-by-reserved-designs.svg"
   inkscape:export-xdpi="96"
   inkscape:export-ydpi="96"
   xmlns:inkscape="http://www.inkscape.org/namespaces/inkscape"
   xmlns:sodipodi="http://sodipodi.sourceforge.net/DTD/sodipodi-0.dtd"
   xmlns="http://www.w3.org/2000/svg"
   xmlns:svg="http://www.w3.org/2000/svg"><sodipodi:namedview
     id="namedview1"
     pagecolor="#ffffff"
     bordercolor="#000000"
     borderopacity="0.25"
     inkscape:showpageshadow="2"
     inkscape:pageopacity="0.0"
     inkscape:pagecheckerboard="0"
     inkscape:deskcolor="#d1d1d1"
     inkscape:document-units="mm"
     showgrid="true"
     inkscape:zoom="0.56630543"
     inkscape:cx="357.58089"
     inkscape:cy="613.62647"
     inkscape:window-width="1920"
     inkscape:window-height="1057"
     inkscape:window-x="-8"
     inkscape:window-y="-8"
     inkscape:window-maximized="1"
     inkscape:current-layer="layer1" /><defs
     id="defs1" /><g
     inkscape:label="Layer 1"
     inkscape:groupmode="layer"
     id="layer1"><g
       id="g1"
       transform="matrix(0.71034001,0,0,0.71034001,30.549122,41.891346)"><path
         id="path1"
         style="display:inline;fill:#502d16;fill-opacity:1"
         d="m 92.414514,71.373938 c -3.229747,0 -4.858035,0.484723 -7.481714,2.226221 -1.796576,1.192499 -4.401385,3.988614 -5.095813,5.46995 -0.79366,1.693019 -1.213967,4.028027 -1.002006,5.569169 l 0.181901,1.32395 -1.859318,1.805058 c -2.69231,2.613396 -3.75966,5.064012 -3.74189,8.59069 0.03126,6.203264 3.238977,10.380504 9.461955,12.322244 1.48435,0.46316 2.012945,0.76213 2.286682,1.29295 0.302551,0.5867 1.156857,6.39308 1.194242,8.05739 -6.318573,3.79909 -12.541462,7.96465 -15.775264,10.15131 -3.459456,2.33926 -5.583122,3.39432 -5.583122,6.35569 v 0.3855 39.43119 0.38551 c 0,2.96134 2.123666,4.01642 5.583122,6.35568 5.398454,3.65039 19.077263,12.81925 27.709936,16.54886 0.06279,0.63897 -0.03585,1.65362 -0.287321,2.44843 -0.138126,0.43656 -0.557534,2.03494 -0.932243,3.55172 -1.386373,5.61193 -4.64197,14.06538 -5.658569,14.69368 -0.404909,0.25024 -0.347092,0.99027 0.130225,1.67173 0.300516,0.42905 0.6784,0.58808 1.398881,0.58808 0.925563,0 1.031885,-0.0871 1.690852,-1.38906 0.386671,-0.76399 0.947405,-1.94742 1.245919,-2.62982 0.298515,-0.6824 0.652573,-1.30854 0.787032,-1.39164 0.13446,-0.0831 0.575015,0.53478 0.978752,1.37304 1.512976,3.14132 2.587347,4.03748 4.841047,4.03748 1.10683,0 1.48223,-0.13614 2.2624,-0.82114 0.58375,-0.51255 0.93534,-1.06008 0.93534,-1.45728 0,-0.61531 -0.0483,-0.63119 -1.44849,-0.46663 -1.39593,0.16407 -1.4785,0.1382 -2.2903,-0.72502 -0.76142,-0.80965 -2.271234,-3.60299 -2.043287,-3.78014 0.05131,-0.0399 1.120917,-0.57795 2.376597,-1.19579 1.25569,-0.61785 2.73369,-1.58507 3.28456,-2.14922 0.84954,-0.87 1.01907,-1.23966 1.11827,-2.43551 0.13427,-1.61912 -0.1344,-1.98646 -1.6309,-2.22932 -1.55265,-0.25196 -3.24928,0.76844 -2.27687,1.36942 0.60923,0.37653 0.2697,1.7848 -0.63613,2.63912 -2.74012,2.58426 -5.613019,3.40758 -4.395602,1.25987 0.329004,-0.58042 1.288865,-3.30156 1.655196,-4.69274 0.153277,-0.58208 0.365909,-1.17739 0.472323,-1.32291 0.106412,-0.14552 0.523513,-1.54451 0.927073,-3.10886 l 0.6842,-2.65152 c 0.97575,0.28512 1.84386,0.46142 2.51767,0.44804 9.1736,-0.18213 27.58169,-13.70341 34,-18.18287 3.23329,-2.71271 5.00021,-3.39434 5.00021,-6.35568 v -0.38551 -39.43119 -0.3855 c 0,-2.96137 -1.76692,-3.64298 -5.00021,-6.35569 -3.39878,-2.37206 -10.16193,-7.27142 -17.13333,-11.39103 0.001,-0.77086 0.0757,-2.07751 0.24857,-3.68091 0.37553,-3.48274 0.51416,-4.46252 0.83406,-5.88595 0.0654,-0.29104 0.74895,-0.90926 1.51877,-1.37408 1.62286,-0.9799 3.50345,-2.68704 4.55992,-4.13928 1.73311,-2.382364 2.41148,-6.157154 1.58285,-8.807213 -0.63489,-2.030454 -2.67653,-4.170957 -4.42453,-4.638477 -1.87444,-0.501333 -2.05568,-0.738218 -2.33474,-3.047359 -0.13762,-1.138815 -0.37853,-2.487394 -0.53486,-2.996716 -1.25512,-4.089094 -4.31228,-7.131642 -8.23567,-8.195883 -2.22832,-0.604447 -7.14518,-0.05106 -9.19789,1.035079 -1.12513,0.595338 -2.03356,0.574591 -2.79983,-0.06305 -1.27068,-1.057372 -3.019963,-2.069904 -4.954215,-2.867525 -1.63399,-0.673798 -2.150678,-0.756543 -4.714441,-0.756543 z m 1.455208,3.546554 c 1.235003,0.07142 2.853208,0.43158 3.730522,0.882116 1.553518,0.797794 3.591616,3.039773 4.699456,5.169194 1.64711,3.165934 3.822,5.046291 6.24355,5.398637 l 0.97875,0.142627 -0.66146,-0.465088 c -2.19218,-1.542125 -3.31664,-3.098944 -3.96462,-5.489588 -0.31492,-1.161865 -0.3017,-1.29745 0.1571,-1.638143 1.78541,-1.325799 6.38461,-2.109728 8.65218,-1.474845 1.51723,0.424799 3.49294,1.946531 4.57492,3.523816 0.93334,1.360601 1.86824,4.780209 1.56683,5.729883 -0.1085,0.341842 -1.00267,0.952154 -2.43189,1.660364 -2.21261,1.096387 -4.32119,2.961334 -4.32119,3.821472 0,0.515948 0.254,0.44685 1.52704,-0.415996 1.51783,-1.028773 3.76666,-1.717507 4.87567,-1.492932 0.48032,0.09727 1.23052,0.240707 1.66708,0.318327 1.0454,0.18587 2.66406,1.311833 3.65611,2.542997 2.20024,2.730585 0.42749,7.366167 -3.12074,8.160227 -1.19303,0.26699 -1.65447,0.23135 -3.59771,-0.27647 -5.01669,-1.311012 -5.8988,-1.442358 -9.73894,-1.453658 -3.79275,-0.01116 -3.80673,-0.0136 -4.32635,-0.7059 -0.42944,-0.57216 -0.46738,-0.796129 -0.21394,-1.26969 0.16921,-0.31618 0.59848,-0.685152 0.95343,-0.820105 0.64606,-0.245631 0.83556,-0.638545 0.42891,-0.889868 -0.32052,-0.198093 -2.85656,1.039445 -3.57084,1.742529 -0.34025,0.334921 -1.01943,1.130915 -1.50895,1.768884 -2.531471,3.299118 -6.613118,2.599268 -6.609418,-1.133264 4.49e-4,-0.451227 0.417167,-1.647417 0.926042,-2.657719 0.508873,-1.010302 0.925525,-1.873509 0.925525,-1.918229 0,-0.556181 -2.257228,1.199547 -3.054077,2.375566 -0.317011,0.467854 -0.853705,1.6245 -1.192692,2.570385 -1.027055,2.865829 -1.913928,4.306189 -3.053044,4.956799 -1.372488,0.78395 -4.723438,0.83548 -6.347933,0.0977 -1.193763,-0.54218 -2.859715,-2.12725 -3.466972,-3.2985 -0.536654,-1.035079 -1.141532,-3.440093 -1.141532,-4.537194 0,-1.253935 0.899349,-3.533278 1.828312,-4.632792 0.763893,-0.904141 0.785301,-0.911016 1.198893,-0.391191 0.231564,0.291042 0.579242,0.886355 0.772563,1.322917 0.365505,0.825394 1.145254,1.625119 1.367875,1.402498 0.07055,-0.07055 -0.06288,-1.129333 -0.29714,-2.352828 -0.434406,-2.268866 -0.37239,-4.867926 0.175184,-7.327718 1.016757,-4.567437 5.093868,-7.980454 10.647928,-8.913151 0.284875,-0.04784 0.653901,-0.05585 1.065568,-0.03204 z m 11.154358,28.360538 c 4.55403,0.0102 5.66048,0.0967 7.9375,0.62116 1.45521,0.33519 2.94349,0.66325 3.30729,0.72915 0.62007,0.11231 1.48367,0.42551 2.36523,0.85731 0.55753,0.27308 0.65923,0.81029 0.15348,0.81029 -0.23945,0 -1.01344,-0.18893 -1.72031,-0.42013 -2.29609,-0.75102 -2.43482,-0.33195 -0.31006,0.93741 1.83037,1.09348 2.42683,1.68248 2.06706,2.04225 -0.0855,0.0855 -0.56491,-0.0386 -1.06505,-0.27595 -0.93726,-0.44475 -2.2942,-0.58397 -2.2717,-0.23306 0.007,0.10914 0.66184,0.60964 1.45521,1.11208 0.90459,0.57288 1.44281,1.09725 1.44281,1.40663 0,0.55758 -0.14904,0.53267 -2.77813,-0.46871 -1.96841,-0.74974 -6.47168,-1.57124 -6.80217,-1.24075 -0.14247,0.14247 0.54224,0.48605 1.69396,0.84956 2.31916,0.73197 5.06922,2.06566 6.67763,3.23856 0.83679,0.61023 1.22804,1.11073 1.35754,1.73685 0.0441,0.2134 0.0313,0.33438 0.0408,0.49041 -5.43609,-3.04299 -10.79184,-5.39897 -14.57534,-5.47409 -2.89419,-0.0575 -8.920868,2.9433 -15.199586,6.5934 -0.105299,-0.37967 -0.140021,-0.84764 -0.01344,-1.08934 0.548241,-1.04678 4.202341,-3.18223 7.770585,-4.54132 l 1.058333,-0.40308 -0.926042,-0.015 c -1.038308,-0.0168 -2.915716,0.54659 -4.894791,1.46865 -0.727604,0.339 -1.828933,0.7271 -2.447396,0.86248 -1.544343,0.33807 -1.482222,-0.12102 0.225309,-1.65623 l 1.350305,-1.2144 -0.887284,0.16847 c -0.48798,0.0926 -1.030185,0.28048 -1.205094,0.41754 -0.17491,0.13708 -0.526527,0.2093 -0.781348,0.1602 -0.755983,-0.14559 1.256192,-1.89613 3.50883,-3.05253 1.911154,-0.9811 2.372982,-1.39991 1.543058,-1.39991 -0.694918,0 -3.08946,0.80839 -4.385262,1.48053 -1.441057,0.74747 -1.551327,0.76452 -1.551327,0.23564 0,-0.52334 1.272849,-1.28638 3.571875,-2.14044 1.018645,-0.37841 2.036718,-0.78136 2.262911,-0.89555 0.226195,-0.11418 1.297759,-0.40778 2.38125,-0.65267 1.083492,-0.24489 2.506204,-0.58304 3.161048,-0.75138 0.716405,-0.18416 3.298266,-0.30104 6.482296,-0.29404 z m -1.02423,9.58185 c 8.58523,0.17044 25.81261,12.82491 31.81925,17.01705 3.02593,2.53872 4.67982,3.17653 4.67982,5.94795 v 0.36071 36.90214 0.3607 c 0,2.77144 -1.65389,3.40923 -4.67982,5.94796 -6.00664,4.19213 -23.23402,16.84659 -31.81925,17.01704 -5.778734,0.11472 -24.835675,-12.66383 -31.27354,-17.01704 -3.237574,-2.18923 -5.225004,-3.17652 -5.225004,-5.94796 v -0.3607 -36.90214 -0.36071 c 0,-2.77142 1.987429,-3.75872 5.225004,-5.94795 6.437865,-4.35324 25.494806,-17.13178 31.27354,-17.01705 z m 10.00714,18.30228 c -5.45647,-0.0196 -6.656,0.33392 -8.13645,2.39934 -1.29001,1.79971 -1.50792,3.30733 -1.50792,10.41125 0,4.10511 0.10844,6.75507 0.30076,7.32927 0.52714,1.57383 1.28363,2.1682 6.18153,4.8612 2.58778,1.42282 4.80619,2.7956 5.37539,3.32589 0.55614,0.5181 0.57774,0.73255 0.57774,5.77846 0,4.72694 -0.0473,5.28297 -0.48059,5.67511 -0.64853,0.58692 -1.89803,0.80579 -3.35329,0.58756 -1.65654,-0.24841 -2.25016,-0.94568 -2.25516,-2.64428 -0.007,-2.6061 0.0926,-2.52957 -3.30625,-2.52957 -2.47549,0 -3.01086,0.0711 -3.144,0.41807 -0.36718,0.95685 0.42071,6.1343 1.1374,7.47344 0.58409,1.09138 2.66695,2.63317 3.93309,2.91145 0.68794,0.15124 2.91797,0.24753 4.95526,0.21343 3.28022,-0.0549 3.84043,-0.1323 4.89479,-0.67438 2.04444,-1.05111 2.70885,-1.85263 3.55792,-4.2907 0.32004,-0.91887 0.40369,-2.56528 0.40669,-8.01811 0.004,-6.47902 -0.0276,-6.92711 -0.56327,-8.03362 -0.66724,-1.37835 -2.20799,-2.4457 -7.50238,-5.1971 -1.89177,-0.98311 -3.66723,-2.09125 -3.94498,-2.46238 -0.45895,-0.61364 -0.50097,-1.13033 -0.46457,-5.70559 0.0442,-5.55155 0.11202,-5.79419 1.72496,-6.16397 1.84146,-0.42216 3.62495,0.0633 4.10517,1.11725 0.1644,0.36081 0.29921,1.70893 0.29921,2.99619 0,1.89014 0.0801,2.37144 0.41806,2.50114 0.54399,0.20875 4.96937,0.20875 5.51336,0 0.34872,-0.13383 0.41858,-0.67821 0.41858,-3.2675 0,-1.70896 -0.12929,-3.51233 -0.28681,-4.00699 -0.79836,-2.50717 -1.62791,-3.61422 -3.2737,-4.36769 -1.24049,-0.5679 -1.72896,-0.62337 -5.58054,-0.63717 z m -40.997493,66.54736 -3.836458,0.0279 c -4.264569,0.0309 -6.174809,0.46834 -7.837765,1.79524 -1.035326,0.8261 -1.139124,1.54702 -0.305924,2.13062 0.83176,0.58259 1.788218,0.51139 2.856673,-0.21239 0.506723,-0.34325 1.219046,-0.71467 1.582849,-0.82579 0.363802,-0.11112 0.799566,-0.31291 0.968933,-0.44803 0.397397,-0.31702 3.803433,-0.6044 4.648812,-0.39222 0.35693,0.0896 0.965262,0.47898 1.351855,0.86558 0.569678,0.56967 0.703317,0.9489 0.703317,2.00039 0,2.02937 -0.705867,3.13224 -3.361552,5.25343 -1.14242,0.9125 -4.347472,1.6337 -4.703072,1.05833 -0.186445,-0.30168 0.576045,-1.93895 1.852083,-3.97702 1.038966,-1.65942 1.064824,-2.25759 0.127124,-2.94556 -1.404185,-1.03021 -1.822668,-0.82841 -3.360002,1.62264 -2.601542,4.1478 -2.936881,5.06734 -4.034895,11.0629 -0.597617,3.26319 0.341051,5.45508 2.515092,5.87354 1.494714,0.28771 1.655665,0.28671 3.518131,-0.0155 4.211681,-0.68341 7.182507,-3.4494 7.182507,-6.68848 0,-0.92898 -0.185623,-1.39506 -0.923974,-2.32389 -0.50791,-0.63894 -0.924125,-1.23195 -0.925525,-1.31775 -0.0014,-0.0858 0.265307,-0.27824 0.592729,-0.42788 1.235127,-0.56448 3.276291,-2.70124 4.007507,-4.19458 0.630384,-1.28739 0.72851,-1.76897 0.63717,-3.13366 -0.140415,-2.09793 -0.60879,-3.00178 -2.06499,-3.98425 z m 11.772408,7.27604 c -0.953328,0 -3.393349,1.27069 -4.631242,2.41174 -2.335808,2.15307 -3.902268,5.21775 -4.271057,8.35556 -0.273948,2.33087 0.916326,4.62182 2.553849,4.91546 1.713367,0.30725 3.995017,-0.64669 4.918563,-2.0562 0.238552,-0.36407 0.509381,-0.66198 0.602031,-0.66198 0.09265,0 0.452659,0.53546 0.799951,1.19011 0.845671,1.59411 2.106819,1.99676 3.846277,1.22732 1.210333,-0.53539 1.739428,-1.19014 1.739428,-2.15181 0,-0.51537 -0.09855,-0.54785 -1.16737,-0.38757 -1.015902,0.15234 -1.20599,0.10244 -1.466577,-0.38447 -0.542972,-1.01455 0.149868,-3.36837 2.412772,-8.19899 0.736629,-1.57248 1.225626,-2.95233 1.141016,-3.21892 -0.322835,-1.01716 -2.212459,-1.10732 -3.012219,-0.14366 -0.369372,0.44506 -1.082622,0.58397 -1.082622,0.21084 0,-0.29429 -1.749577,-1.10743 -2.3828,-1.10743 z m 48.467845,0.12868 c -0.20688,-0.0195 -0.4247,0.0275 -0.71107,0.13642 -0.97482,0.37063 -3.51939,2.70979 -4.42867,4.07107 -0.39956,0.59817 -0.72697,0.96256 -0.7276,0.80977 -6.2e-4,-0.1528 0.1077,-0.39092 0.24081,-0.52917 0.13311,-0.13824 0.31996,-0.90599 0.41496,-1.70635 0.23767,-2.00191 -0.15933,-2.51354 -1.94924,-2.51354 -0.89272,0 -1.48084,0.14604 -1.7756,0.4408 -0.41124,0.41124 -0.40275,0.51856 0.12248,1.60352 l 0.56275,1.16272 -0.67696,2.23293 c -0.3723,1.22815 -0.79015,2.6833 -0.92862,3.23392 -0.13849,0.55061 -0.35376,1.20546 -0.47853,1.4552 -1.74459,3.4923 -1.78464,4.75929 -0.1633,5.15783 v -5.2e-4 c 0.29104,0.0716 0.59567,0.14433 0.67696,0.16123 0.38955,0.0809 1.003,-0.75697 1.43093,-1.95388 1.34972,-3.77525 4.0292,-8.28959 5.64306,-9.50692 0.61988,-0.46754 0.73401,-0.47341 1.76734,-0.0904 1.39219,0.51599 1.88329,0.26432 2.26756,-1.16272 0.36381,-1.35109 0.16233,-2.2104 -0.64182,-2.7373 -0.24229,-0.15875 -0.43856,-0.24507 -0.64544,-0.26458 z m 15.61041,0.031 c -0.6518,-0.0536 -1.30652,0.42851 -1.84019,1.38906 -0.54134,0.97435 -1.72815,3.14896 -2.90577,5.32319 -1.62845,3.00661 -4.52292,6.09265 -5.71386,6.09265 -0.72238,0 -0.7612,-0.0534 -0.6289,-0.86868 0.0775,-0.47784 0.54969,-1.75776 1.04903,-2.84427 1.26229,-2.74657 2.24931,-5.47722 2.45204,-6.78408 0.14083,-0.90783 0.0735,-1.20239 -0.37775,-1.65364 -0.72275,-0.72278 -2.62081,-0.75241 -3.48299,-0.0543 -0.60147,0.48704 -0.6035,0.50682 -0.13074,1.22835 0.50122,0.76502 0.45805,2.48921 -0.0878,3.49643 -0.59549,1.09873 -1.98014,4.28154 -2.43758,5.60328 -0.64157,1.85376 -0.6262,2.96185 0.0532,3.8256 0.47251,0.60074 0.74766,0.69712 1.98954,0.69712 2.06907,0 3.64425,-1.16961 6.38307,-4.73925 0.44766,-0.58345 0.41831,-0.33883 -0.18965,1.56425 -0.29105,0.91104 -0.52917,1.81606 -0.52917,2.01124 0,0.19517 -0.29282,1.01673 -0.6506,1.82573 -0.80005,1.80905 -3.23097,4.41956 -5.10409,5.48081 -1.41143,0.79968 -1.64105,1.17272 -1.07176,1.74201 0.42651,0.42652 1.87975,0.40129 2.96261,-0.0512 1.26331,-0.52784 3.83393,-3.1884 4.95783,-5.13095 1.09845,-1.89858 2.51547,-5.09903 3.5388,-7.99435 0.38575,-1.0914 0.80474,-2.2225 0.93121,-2.51354 0.43641,-1.00425 2.10892,-6.26275 2.10892,-6.6306 0,-0.20286 -0.28298,-0.55417 -0.6289,-0.78083 -0.21217,-0.13902 -0.42921,-0.21623 -0.64648,-0.2341 z m -32.12982,0.1049 c -1.94511,0 -3.77197,0.95916 -5.61102,2.94556 -1.66972,1.8035 -2.34298,3.04751 -2.94246,5.43791 -0.46051,1.83622 -0.34571,3.60881 0.32608,5.0245 0.53483,1.12707 0.93547,1.43073 2.42259,1.83813 0.68311,0.18715 1.65902,0.2926 2.16834,0.2341 2.74748,-0.31538 3.39896,-0.48681 4.36563,-1.1498 0.91435,-0.6271 1.06916,-0.87758 1.13946,-1.83968 0.0696,-0.9528 0.008,-1.11363 -0.43046,-1.11363 -0.28159,0 -0.66635,0.18591 -0.85473,0.41289 -0.47815,0.57614 -2.17885,1.36048 -3.39411,1.5658 -1.41802,0.23957 -2.46106,-0.63649 -2.51096,-2.10892 -0.0385,-1.13774 -0.27499,-1.00114 3.00809,-1.73322 3.70143,-0.82536 6.08542,-3.08164 6.08542,-5.75934 0,-2.54739 -1.21278,-3.7543 -3.77187,-3.7543 z m -31.698321,1.98645 c 0.656235,0.10437 1.27489,0.57054 1.470711,1.18752 0.380954,1.20028 -2.018401,6.24297 -4.025594,8.46098 -2.35473,2.60206 -3.476261,2.00999 -3.110921,-1.64331 0.325753,-3.25744 2.969923,-7.46913 5.011064,-7.98142 0.212818,-0.0534 0.435995,-0.0586 0.65474,-0.0238 z m 31.432711,0.0816 c 0.37143,0.0249 0.6741,0.22644 0.87953,0.61029 0.70624,1.31963 -0.31969,3.13846 -2.67012,4.7346 -1.61121,1.09416 -1.98428,1.20858 -2.62103,0.80563 -0.62055,-0.39269 0.65256,-3.30194 2.11615,-4.83588 0.86644,-0.90808 1.6764,-1.35617 2.29547,-1.31464 z m -49.192867,4.03592 c 1.149617,0.0807 1.869606,0.57164 2.315621,1.51154 0.812174,1.71154 -0.219302,3.71263 -2.624646,5.0922 -1.639921,0.94056 -3.5313,1.07576 -4.231267,0.3023 -0.607598,-0.67139 -0.563348,-2.74685 0.100769,-4.7134 0.535555,-1.58587 0.547032,-1.59736 1.872238,-1.90325 1.032895,-0.23842 1.877515,-0.3378 2.567285,-0.28939 z"
         sodipodi:nodetypes="ssscccssscssccsscssssssssssssssssssssssssccscsccsccsssssssssssssssscccssssssssssssssssssssssssscssssssssssscsssssssssssssssscscssccsscccscsssssssscscsscscsssccssssssssssscssssssscsscssssssssssccssssssssssssssssssssssccssssssssssssssssssssscsscccsccccssssssssssscsssssssssssssssssssssssssscsssssssssssssssssssssssssssssssssss" /><path
         id="rect2"
         style="fill:#502d16;fill-opacity:1;stroke:#000000;stroke-width:0;stroke-linejoin:bevel;paint-order:stroke markers fill"
         d="m 86.646908,131.16909 v 40.37798 5.82249 0.0196 h 14.673002 v -5.8421 h -8.319902 v -40.37798 z" /></g></g></svg>
