<?xml version="1.0" encoding="UTF-8" standalone="no"?>
<!-- Created with Inkscape (http://www.inkscape.org/) -->

<svg
   width="210mm"
   height="297mm"
   viewBox="0 0 210 297"
   version="1.1"
   id="svg1"
   xml:space="preserve"
   inkscape:version="1.3.2 (091e20e, 2023-11-25, custom)"
   sodipodi:docname="icons group.svg"
   inkscape:export-filename="inspire-growth.svg"
   inkscape:export-xdpi="96"
   inkscape:export-ydpi="96"
   xmlns:inkscape="http://www.inkscape.org/namespaces/inkscape"
   xmlns:sodipodi="http://sodipodi.sourceforge.net/DTD/sodipodi-0.dtd"
   xmlns="http://www.w3.org/2000/svg"
   xmlns:svg="http://www.w3.org/2000/svg"><sodipodi:namedview
     id="namedview1"
     pagecolor="#ffffff"
     bordercolor="#000000"
     borderopacity="0.25"
     inkscape:showpageshadow="2"
     inkscape:pageopacity="0.0"
     inkscape:pagecheckerboard="0"
     inkscape:deskcolor="#d1d1d1"
     inkscape:document-units="mm"
     inkscape:zoom="0.14157636"
     inkscape:cx="-769.90255"
     inkscape:cy="978.27068"
     inkscape:window-width="1920"
     inkscape:window-height="1057"
     inkscape:window-x="-8"
     inkscape:window-y="-8"
     inkscape:window-maximized="1"
     inkscape:current-layer="SVGRepo_iconCarrier-4" /><defs
     id="defs1"><style
       id="style1-8"> .cls-1 { fill: none; } </style></defs><g
     inkscape:label="Layer 1"
     inkscape:groupmode="layer"
     id="layer1"><g
       style="fill:#000000"
       id="g1"
       transform="matrix(0.41341146,0,0,0.41341146,-0.77660406,42.66646)"><g
         id="SVGRepo_iconCarrier">     <g
   style="fill:#000000;stroke:#000000;stroke-width:0.00032"
   id="g4"
   transform="matrix(13.333333,0,0,13.333333,42.824893,49.05863)"><g
     id="SVGRepo_bgCarrier-4"
     stroke-width="0">

<rect
   x="-3.2"
   y="-3.2"
   width="38.400002"
   height="38.400002"
   rx="19.200001"
   fill="#ffffff"
   strokewidth="0"
   id="rect1-1" />

</g><g
     id="SVGRepo_tracerCarrier-1"
     stroke-linecap="round"
     stroke-linejoin="round" /><g
     id="SVGRepo_iconCarrier-7"> <style
   type="text/css"
   id="style1"> .open_een{fill:#ff007b;} </style> <g
   id="g7"> <g
   id="g3"> <path
   class="open_een"
   d="M 16,30 C 8.28,30 2,23.72 2,16 2,12.002 5.252,8.75 9.25,8.75 c 3.998,0 7.25,3.252 7.25,7.25 0,3.446 2.804,6.25 6.25,6.25 C 26.196,22.25 29,19.446 29,16 29,8.832 23.168,3 16,3 12.057,3 8.372,4.76 5.889,7.829 5.716,8.043 5.399,8.076 5.186,7.903 4.971,7.729 4.938,7.415 5.111,7.2 7.785,3.895 11.753,2 16,2 c 7.72,0 14,6.28 14,14 0,3.998 -3.252,7.25 -7.25,7.25 C 18.752,23.25 15.5,19.998 15.5,16 15.5,12.554 12.696,9.75 9.25,9.75 5.804,9.75 3,12.554 3,16 c 0,7.168 5.832,13 13,13 3.943,0 7.629,-1.76 10.112,-4.829 0.173,-0.215 0.489,-0.248 0.703,-0.074 0.215,0.174 0.248,0.488 0.074,0.703 C 24.215,28.104 20.247,30 16,30 Z"
   id="path1-8" /> <path
   class="open_een"
   d="m 8.5,17.5 c -1.103,0 -2,-0.897 -2,-2 0,-1.103 0.897,-2 2,-2 1.103,0 2,0.897 2,2 0,1.103 -0.897,2 -2,2 z m 0,-3 c -0.551,0 -1,0.449 -1,1 0,0.551 0.449,1 1,1 0.551,0 1,-0.449 1,-1 0,-0.551 -0.449,-1 -1,-1 z"
   id="path2-1" /> <path
   class="open_een"
   d="m 23.5,17.5 c -1.103,0 -2,-0.897 -2,-2 0,-1.103 0.897,-2 2,-2 1.103,0 2,0.897 2,2 0,1.103 -0.897,2 -2,2 z m 0,-3 c -0.551,0 -1,0.449 -1,1 0,0.551 0.449,1 1,1 0.551,0 1,-0.449 1,-1 0,-0.551 -0.449,-1 -1,-1 z"
   id="path3-5" /> </g> <g
   id="g6"> <path
   class="open_een"
   d="M 16,30 C 8.28,30 2,23.72 2,16 2,12.002 5.252,8.75 9.25,8.75 c 3.998,0 7.25,3.252 7.25,7.25 0,3.446 2.804,6.25 6.25,6.25 C 26.196,22.25 29,19.446 29,16 29,8.832 23.168,3 16,3 12.057,3 8.372,4.76 5.889,7.829 5.716,8.043 5.399,8.076 5.186,7.903 4.971,7.729 4.938,7.415 5.111,7.2 7.785,3.895 11.753,2 16,2 c 7.72,0 14,6.28 14,14 0,3.998 -3.252,7.25 -7.25,7.25 C 18.752,23.25 15.5,19.998 15.5,16 15.5,12.554 12.696,9.75 9.25,9.75 5.804,9.75 3,12.554 3,16 c 0,7.168 5.832,13 13,13 3.943,0 7.629,-1.76 10.112,-4.829 0.173,-0.215 0.489,-0.248 0.703,-0.074 0.215,0.174 0.248,0.488 0.074,0.703 C 24.215,28.104 20.247,30 16,30 Z"
   id="path4-3"
   style="fill:#ff006f;fill-opacity:1" /> <path
   class="open_een"
   d="m 8.5,17.5 c -1.103,0 -2,-0.897 -2,-2 0,-1.103 0.897,-2 2,-2 1.103,0 2,0.897 2,2 0,1.103 -0.897,2 -2,2 z m 0,-3 c -0.551,0 -1,0.449 -1,1 0,0.551 0.449,1 1,1 0.551,0 1,-0.449 1,-1 0,-0.551 -0.449,-1 -1,-1 z"
   id="path5-72"
   style="fill:#ff006f;fill-opacity:1" /> <path
   class="open_een"
   d="m 23.5,17.5 c -1.103,0 -2,-0.897 -2,-2 0,-1.103 0.897,-2 2,-2 1.103,0 2,0.897 2,2 0,1.103 -0.897,2 -2,2 z m 0,-3 c -0.551,0 -1,0.449 -1,1 0,0.551 0.449,1 1,1 0.551,0 1,-0.449 1,-1 0,-0.551 -0.449,-1 -1,-1 z"
   id="path6"
   style="fill:#ff006f;fill-opacity:1" /> </g> </g> </g></g></g></g></g></svg>
