<?xml version="1.0" encoding="UTF-8" standalone="no"?>
<!-- Created with Inkscape (http://www.inkscape.org/) -->

<svg
   width="210mm"
   height="297mm"
   viewBox="0 0 210 297"
   version="1.1"
   id="svg1"
   xml:space="preserve"
   inkscape:version="1.3.2 (091e20e, 2023-11-25, custom)"
   sodipodi:docname="icons group.svg"
   inkscape:export-filename="transforming-brands.svg"
   inkscape:export-xdpi="96"
   inkscape:export-ydpi="96"
   xmlns:inkscape="http://www.inkscape.org/namespaces/inkscape"
   xmlns:sodipodi="http://sodipodi.sourceforge.net/DTD/sodipodi-0.dtd"
   xmlns="http://www.w3.org/2000/svg"
   xmlns:svg="http://www.w3.org/2000/svg"><sodipodi:namedview
     id="namedview1"
     pagecolor="#ffffff"
     bordercolor="#000000"
     borderopacity="0.25"
     inkscape:showpageshadow="2"
     inkscape:pageopacity="0.0"
     inkscape:pagecheckerboard="0"
     inkscape:deskcolor="#d1d1d1"
     inkscape:document-units="mm"
     inkscape:zoom="0.14157636"
     inkscape:cx="-769.90255"
     inkscape:cy="978.27068"
     inkscape:window-width="1920"
     inkscape:window-height="1057"
     inkscape:window-x="-8"
     inkscape:window-y="-8"
     inkscape:window-maximized="1"
     inkscape:current-layer="SVGRepo_iconCarrier-4" /><defs
     id="defs1"><style
       id="style1-8"> .cls-1 { fill: none; } </style></defs><g
     inkscape:label="Layer 1"
     inkscape:groupmode="layer"
     id="layer1"><g
       style="fill:#000000"
       id="g1"
       transform="matrix(0.41341146,0,0,0.41341146,-0.77660406,42.66646)"><g
         id="SVGRepo_iconCarrier">     <g
   style="fill:none"
   id="g8"
   transform="matrix(21.333333,0,0,21.333333,2.4185398,22.213817)"><g
     id="SVGRepo_bgCarrier-42"
     stroke-width="0"><rect
       x="0"
       y="0"
       width="24"
       height="24"
       rx="12"
       fill="#ffffff"
       strokewidth="0"
       id="rect1-6" /></g><g
     id="SVGRepo_tracerCarrier-2"
     stroke-linecap="round"
     stroke-linejoin="round" /><g
     id="SVGRepo_iconCarrier-6"><path
       d="m 12.9996,3 -7.93101,9.6934 c -0.34156,0.4175 -0.51234,0.6262 -0.51388,0.8022 -0.00135,0.153 0.06747,0.2983 0.18677,0.3941 C 4.87867,14 5.14837,14 5.68776,14 h 6.31184 l -1,7 7.9309,-9.6934 c 0.3416,-0.4175 0.5124,-0.6262 0.5139,-0.8022 0.0014,-0.153 -0.0674,-0.2983 -0.1867,-0.3941 C 19.1205,10 18.8508,10 18.3114,10 h -6.3118 z"
       stroke="#ff006f"
       stroke-width="2"
       stroke-linecap="round"
       stroke-linejoin="round"
       id="path1-5" /></g></g></g></g></g></svg>
