<?xml version="1.0" encoding="UTF-8" standalone="no"?>
<!-- Created with Inkscape (http://www.inkscape.org/) -->

<svg
   width="210mm"
   height="297mm"
   viewBox="0 0 210 297"
   version="1.1"
   id="svg1"
   xml:space="preserve"
   inkscape:version="1.3.2 (091e20e, 2023-11-25, custom)"
   sodipodi:docname="icons group.svg"
   inkscape:export-filename="innovate-for-tomorrow.svg"
   inkscape:export-xdpi="96"
   inkscape:export-ydpi="96"
   xmlns:inkscape="http://www.inkscape.org/namespaces/inkscape"
   xmlns:sodipodi="http://sodipodi.sourceforge.net/DTD/sodipodi-0.dtd"
   xmlns="http://www.w3.org/2000/svg"
   xmlns:svg="http://www.w3.org/2000/svg"
   xmlns:sketch="http://www.bohemiancoding.com/sketch/ns"><sodipodi:namedview
     id="namedview1"
     pagecolor="#ffffff"
     bordercolor="#000000"
     borderopacity="0.25"
     inkscape:showpageshadow="2"
     inkscape:pageopacity="0.0"
     inkscape:pagecheckerboard="0"
     inkscape:deskcolor="#d1d1d1"
     inkscape:document-units="mm"
     inkscape:zoom="0.14157636"
     inkscape:cx="-769.90255"
     inkscape:cy="978.27068"
     inkscape:window-width="1920"
     inkscape:window-height="1057"
     inkscape:window-x="-8"
     inkscape:window-y="-8"
     inkscape:window-maximized="1"
     inkscape:current-layer="SVGRepo_iconCarrier-4" /><defs
     id="defs1"><style
       id="style1-8"> .cls-1 { fill: none; } </style></defs><g
     inkscape:label="Layer 1"
     inkscape:groupmode="layer"
     id="layer1"><g
       style="fill:#000000"
       id="g1"
       transform="matrix(0.41341146,0,0,0.41341146,-0.77660406,42.66646)"><g
         id="SVGRepo_iconCarrier">     <g
   style="fill:#000000"
   id="g9"
   transform="matrix(13.333333,0,0,13.333333,43.955071,53.579165)"><g
     id="SVGRepo_bgCarrier-8"
     stroke-width="0"><rect
       x="-3.2"
       y="-3.2"
       width="38.400002"
       height="38.400002"
       rx="19.200001"
       fill="#ffffff"
       strokewidth="0"
       id="rect1-5" /></g><g
     id="SVGRepo_tracerCarrier-26"
     stroke-linecap="round"
     stroke-linejoin="round" /><g
     id="SVGRepo_iconCarrier-2"><title
       id="title1">globe</title><desc
       id="desc1">Created with Sketch Beta.</desc><defs
       id="defs1-8" /><g
       id="Page-1"
       stroke="none"
       stroke-width="1"
       fill="none"
       fill-rule="evenodd"
       sketch:type="MSPage"><g
         id="Icon-Set"
         sketch:type="MSLayerGroup"
         transform="translate(-204,-671)"
         fill="#ff007b"><path
           d="m 231.596,694.829 c -1.915,-0.637 -3.974,-1.113 -6.141,-1.421 0.295,-1.733 0.452,-3.549 0.502,-5.408 h 8.005 c -0.179,2.521 -1.026,4.854 -2.366,6.829 z m -8.162,5.73 c 0.666,-1.609 1.211,-3.348 1.63,-5.18 1.798,0.266 3.522,0.659 5.155,1.175 -1.804,1.923 -4.146,3.338 -6.785,4.005 z m -2.463,0.392 C 220.649,700.974 220.328,701 220,701 c -0.328,0 -0.648,-0.026 -0.971,-0.049 -0.851,-1.772 -1.54,-3.744 -2.05,-5.837 0.994,-0.087 2.001,-0.138 3.021,-0.138 1.02,0 2.027,0.051 3.022,0.138 -0.511,2.093 -1.2,4.065 -2.051,5.837 z m -11.19,-4.397 c 1.633,-0.516 3.357,-0.909 5.155,-1.175 0.419,1.832 0.964,3.571 1.63,5.18 -2.639,-0.667 -4.98,-2.082 -6.785,-4.005 z m -1.377,-1.725 c -1.34,-1.975 -2.187,-4.308 -2.366,-6.829 h 8.005 c 0.05,1.859 0.207,3.675 0.502,5.408 -2.167,0.308 -4.226,0.784 -6.141,1.421 z m 0,-15.658 c 1.915,0.637 3.974,1.114 6.141,1.421 -0.295,1.733 -0.452,3.549 -0.502,5.408 h -8.005 c 0.179,-2.521 1.026,-4.854 2.366,-6.829 z m 8.162,-5.73 c -0.666,1.609 -1.211,3.348 -1.63,5.18 -1.798,-0.265 -3.522,-0.659 -5.155,-1.175 1.805,-1.923 4.146,-3.338 6.785,-4.005 z m 2.463,-0.392 C 219.352,673.027 219.672,673 220,673 c 0.328,0 0.649,0.027 0.971,0.049 0.851,1.772 1.54,3.745 2.051,5.837 -0.995,0.087 -2.002,0.138 -3.022,0.138 -1.02,0 -2.027,-0.051 -3.021,-0.138 0.51,-2.092 1.199,-4.065 2.05,-5.837 z M 223.954,688 c -0.054,1.761 -0.214,3.493 -0.515,5.156 C 222.313,693.058 221.168,693 220,693 c -1.168,0 -2.313,0.058 -3.438,0.156 -0.302,-1.663 -0.462,-3.395 -0.515,-5.156 z m -7.907,-2 c 0.053,-1.761 0.213,-3.493 0.515,-5.156 1.125,0.098 2.27,0.156 3.438,0.156 1.168,0 2.313,-0.058 3.438,-0.156 0.302,1.663 0.462,3.395 0.516,5.156 z m 14.172,-8.554 c -1.633,0.516 -3.357,0.91 -5.155,1.175 -0.419,-1.832 -0.964,-3.571 -1.63,-5.18 2.639,0.667 4.981,2.082 6.785,4.005 z m 1.377,1.725 c 1.34,1.975 2.187,4.308 2.366,6.829 h -8.005 c -0.05,-1.859 -0.207,-3.675 -0.502,-5.408 2.167,-0.307 4.226,-0.784 6.141,-1.421 z M 220,671 c -8.836,0 -16,7.163 -16,16 0,8.837 7.164,16 16,16 8.836,0 16,-7.163 16,-16 0,-8.837 -7.164,-16 -16,-16 z"
           id="globe"
           sketch:type="MSShapeGroup"
           style="fill:#ff006f;fill-opacity:1" /></g></g></g></g></g></g></g></svg>
