<!DOCTYPE svg PUBLIC "-//W3C//DTD SVG 1.1//EN" "http://www.w3.org/Graphics/SVG/1.1/DTD/svg11.dtd">
<!-- Uploaded to: SVG Repo, www.svgrepo.com, Transformed by: SVG Repo Mixer Tools -->
<svg width="800px" height="800px" viewBox="0 0 20.00 20.00" xmlns="http://www.w3.org/2000/svg" fill="#0055ff" stroke="#0055ff">
<g id="SVGRepo_bgCarrier" stroke-width="0">
<rect x="0" y="0" width="20.00" height="20.00" rx="10" fill="#ffffff" strokewidth="0"/>
</g>
<g id="SVGRepo_tracerCarrier" stroke-linecap="round" stroke-linejoin="round"/>
<g id="SVGRepo_iconCarrier"> <g id="thunder" transform="translate(-4.967 -1.996)"> <path id="secondary" fill="#f00068" d="M17.76,10.63,9,21l2.14-8H7.05a1,1,0,0,1-1-1.36l3.23-8a1.05,1.05,0,0,1,1-.64h4.34a1,1,0,0,1,1,1.36L13.7,9H17a1,1,0,0,1,.76,1.63Z"/> <path id="primary" d="M17.76,10.63,9,21l2.14-8H7.05a1,1,0,0,1-1-1.36l3.23-8a1.05,1.05,0,0,1,1-.64h4.34a1,1,0,0,1,1,1.36L13.7,9H17a1,1,0,0,1,.76,1.63Z" fill="none" stroke="#0055ff" stroke-linecap="round" stroke-linejoin="round" stroke-width="0.48009599999999997"/> </g> </g>
</svg>